<?xml version="1.0" encoding="UTF-8"?> <svg xmlns="http://www.w3.org/2000/svg" width="80" height="48" viewBox="0 0 80 48" fill="none"><rect x="0.492235" y="0.492235" width="78.1143" height="46.2701" rx="4.43011" stroke="white" stroke-width="0.984469"></rect><path fill-rule="evenodd" clip-rule="evenodd" d="M67.6985 25.1943H64.7427C63.8507 25.1943 63.2028 25.4064 62.7439 25.7361V25.1943H58.3719C57.6728 25.1943 56.8522 25.3664 56.464 25.7361V25.1943H48.6568V25.7361C48.0355 25.2912 46.9871 25.1943 46.5032 25.1943H41.3535V25.7361C40.862 25.2636 39.7688 25.1943 39.1026 25.1943H33.3392L32.0203 26.6112L30.7851 25.1943H22.1758V34.4517H30.6231L31.982 33.0125L33.2622 34.4517L38.4691 34.4563V32.2786H38.981C39.6719 32.2892 40.4867 32.2616 41.2056 31.9531V34.4515H45.5004V32.0387H45.7075C45.972 32.0387 45.998 32.0495 45.998 32.3118V34.4513H59.0447C59.873 34.4513 60.7388 34.2408 61.2183 33.8589V34.4513H65.3566C66.2178 34.4513 67.6987 34.0246 67.6987 34.0246C67.6987 34.0246 67.6985 46.4012 67.6985 25.1943Z" fill="white"></path><path fill-rule="evenodd" clip-rule="evenodd" d="M13.6051 23.0337L14.2203 21.5604H15.5979L16.2115 23.0337H21.5807V21.9073L22.0599 23.0385H24.8472L25.3265 21.8905V23.0337H38.6698L38.6636 20.6153H38.9218C39.1025 20.6215 39.1553 20.6381 39.1553 20.9344V23.0337H46.0566V22.4707C46.6132 22.7668 47.479 23.0337 48.6183 23.0337H51.5217L52.143 21.5604H53.5205L54.1282 23.0337H59.723V21.6342L60.5703 23.0337H65.0537V13.7827H60.6167V14.8753L59.9953 13.7827H55.4424V14.8753L54.8718 13.7827H48.7219C47.6925 13.7827 46.7876 13.9254 46.0566 14.3229V13.7827H41.8126V14.3229C41.3475 13.9132 40.7136 13.7827 40.0089 13.7827H24.504L23.4637 16.1721L22.3953 13.7827H17.5117V14.8753L16.9752 13.7827H12.8102L10.876 18.1811V23.0337H13.6051Z" fill="white"></path><path fill-rule="evenodd" clip-rule="evenodd" d="M39.0518 30.9136C40.4478 30.9136 41.833 30.5331 41.833 28.6901C41.833 26.8527 40.4089 26.5044 39.1415 26.5044H34.0381L32.0066 28.6791L30.0416 26.5044H23.618V33.1389H29.9443L31.9881 30.9426L33.9547 33.1389H37.059V30.9136H39.0518ZM37.059 29.5662H39.1229C39.7366 29.5662 40.1183 29.2639 40.1183 28.6901C40.1183 28.11 39.7181 27.8767 39.1415 27.8767H37.059V29.5662ZM29.1357 31.7563H25.209V30.4363H28.7153V29.0827H25.209V27.8765H29.2131L30.96 29.8099L29.1357 31.7563ZM35.4682 32.5356L33.0161 29.8331L35.4682 27.2165V32.5356Z" fill="#262626"></path><path fill-rule="evenodd" clip-rule="evenodd" d="M48.6633 30.6127C48.5271 30.4195 48.2364 30.186 47.8809 30.0557C48.3013 29.8901 49.0128 29.3497 49.013 28.2908C49.013 27.5339 48.6959 27.1198 48.1919 26.8175C47.6677 26.5398 47.0788 26.5044 46.2702 26.5044H42.5829V33.1389H44.1878V30.7157H45.8946C46.4772 30.7157 46.8329 30.7726 47.0663 31.0102C47.3335 31.2879 47.3289 31.7946 47.3253 32.1841C47.3249 32.2273 47.3245 32.269 47.3245 32.3089V33.1389H48.9279V31.8237C48.9215 31.2389 48.8888 30.9366 48.6633 30.6127ZM46.9164 29.2301C46.7027 29.356 46.4385 29.3668 46.1278 29.3668H44.1876V27.8767H46.1542C46.4385 27.8767 46.7231 27.8827 46.9164 27.9965C47.1233 28.104 47.2471 28.3094 47.2471 28.5933C47.2471 28.8772 47.1233 29.1059 46.9164 29.2301Z" fill="#262626"></path><path d="M61.3279 29.6398C61.6389 29.9593 61.8055 30.3626 61.8055 31.0455C61.8055 32.4727 60.9073 33.1389 59.2966 33.1389H56.1859V31.7163H59.2841C59.587 31.7163 59.8019 31.6765 59.9365 31.552C60.0463 31.4494 60.1251 31.3003 60.1251 31.1193C60.1251 30.926 60.0399 30.7726 59.9302 30.6805C59.8081 30.5793 59.6396 30.5333 59.3615 30.5333C59.2637 30.53 59.1643 30.5273 59.0639 30.5246C57.631 30.4859 55.9974 30.4418 55.9974 28.4798C55.9974 27.5175 56.6065 26.5046 58.2809 26.5046H61.4827V27.9166H58.5529C58.2625 27.9166 58.0737 27.9275 57.9131 28.0365C57.7381 28.1439 57.6732 28.3034 57.6732 28.5138C57.6732 28.7641 57.8218 28.9344 58.0227 29.008C58.1912 29.0662 58.3722 29.0832 58.6442 29.0832L59.504 29.1062C60.371 29.1272 60.9661 29.2761 61.3279 29.6398Z" fill="#262626"></path><path d="M67.6987 27.9162H64.7879C64.4973 27.9162 64.3042 27.927 64.1416 28.0361C63.9731 28.1435 63.9082 28.303 63.9082 28.5134C63.9082 28.7637 64.0505 28.934 64.2574 29.0076C64.4259 29.0658 64.6069 29.0828 64.8729 29.0828L65.7385 29.1058C66.612 29.1272 67.1951 29.2763 67.5506 29.6398C67.6052 29.6825 67.6414 29.7297 67.6782 29.7775L67.6881 29.7904L67.6945 29.7986L67.6987 29.804V32.2903C67.3107 32.8535 66.5548 33.1389 65.5314 33.1389H62.447V31.7163H65.5189C65.8236 31.7163 66.0368 31.6765 66.1652 31.552C66.2765 31.4494 66.354 31.3004 66.354 31.1193C66.354 30.926 66.2764 30.7726 66.159 30.6806C66.0431 30.5793 65.8744 30.5333 65.5963 30.5333C65.4982 30.53 65.3985 30.5273 65.2978 30.5246C63.8599 30.4859 62.2257 30.442 62.2257 28.4798C62.2257 27.5175 62.8412 26.5046 64.5172 26.5046H67.6985L67.6987 27.9162Z" fill="#262626"></path><path d="M49.8985 26.5044H55.229V27.8764H51.4891V29.0826H55.1377V30.4363H51.4891V31.7563L55.229 31.7623V33.1389H49.8985V26.5044Z" fill="#262626"></path><path fill-rule="evenodd" clip-rule="evenodd" d="M15.9981 18.8587L14.9049 16.2144L13.818 18.8587H15.9981ZM40.0798 17.8058C39.8603 17.9381 39.6007 17.9425 39.2897 17.9425H37.3495V16.4692H39.3161C39.5945 16.4692 39.8849 16.4816 40.0735 16.5888C40.2807 16.6855 40.4089 16.8911 40.4089 17.1752C40.4089 17.4651 40.2869 17.6984 40.0798 17.8058ZM53.9209 18.8587L52.8157 16.2144L51.7165 18.8587H53.9209ZM28.1201 21.7208H26.4828L26.4768 16.526L24.1609 21.7208H22.7586L20.4367 16.5214V21.7208H17.1883L16.5746 20.2413H13.2493L12.6293 21.7208H10.8947L13.7547 15.0879H16.1276L18.844 21.3679V15.0879H21.4506L23.5408 19.5875L25.4608 15.0879H28.1199V21.7208H28.1201ZM34.6457 21.7208H29.3104V15.0879H34.6457V16.4691H30.9076V17.6647H34.556V19.0244H30.9076V20.349H34.6457V21.7208ZM42.1683 16.8743C42.1683 17.9318 41.4572 18.4782 41.0429 18.6422C41.3924 18.7743 41.6908 19.0076 41.8329 19.2008C42.0584 19.5307 42.0973 19.8254 42.0973 20.4178V21.7208H40.4864L40.4804 20.8844C40.4804 20.4852 40.5189 19.9112 40.2283 19.5921C39.9949 19.3589 39.6392 19.3082 39.0642 19.3082H37.3497V21.7208H35.7527V15.0879H39.4262C40.2424 15.0879 40.8438 15.1093 41.3601 15.4056C41.8654 15.7019 42.1683 16.1344 42.1683 16.8743ZM44.7242 21.7208H43.0945V15.0879H44.7242V21.7208ZM63.63 21.7208H61.3667L58.3394 16.7424V21.7208H55.0868L54.4653 20.2413H51.1476L50.5446 21.7208H48.6757C47.8994 21.7208 46.9165 21.5504 46.3599 20.9872C45.7986 20.424 45.5065 19.6612 45.5065 18.455C45.5065 17.4713 45.6811 16.572 46.3675 15.8613C46.8839 15.332 47.6924 15.0879 48.793 15.0879H50.3392V16.5091H48.8255C48.2426 16.5091 47.9135 16.5952 47.5965 16.9021C47.3242 17.1814 47.1374 17.7093 47.1374 18.4046C47.1374 19.1152 47.2797 19.6276 47.5765 19.9623C47.8224 20.2247 48.2692 20.3044 48.6896 20.3044H49.4069L51.6579 15.0881H54.0509L56.7549 21.3619V15.0881H59.1867L61.9941 19.7076V15.0881H63.63V21.7208Z" fill="#262626"></path></svg> 