<?xml version="1.0" encoding="UTF-8"?> <svg xmlns="http://www.w3.org/2000/svg" width="80" height="48" viewBox="0 0 80 48" fill="none"><rect x="0.512193" y="0.492235" width="78.1143" height="46.2701" rx="4.43011" stroke="white" stroke-width="0.984469"></rect><path fill-rule="evenodd" clip-rule="evenodd" d="M46.6854 23.1276C46.6786 18.8144 43.9709 15.1359 40.1554 13.679V32.5755C43.9709 31.1168 46.6786 27.4416 46.6854 23.1276ZM32.8768 32.5718V13.681C29.0647 15.1424 26.3611 18.8157 26.3509 23.1278C26.3611 27.4387 29.0647 31.1116 32.8768 32.5718ZM36.518 7.15573C27.6591 7.15912 20.4819 14.3069 20.4803 23.1276C20.4819 31.9472 27.6591 39.0939 36.518 39.0954C45.377 39.0939 52.5558 31.9472 52.558 23.1276C52.5558 14.3069 45.377 7.15912 36.518 7.15573ZM36.4787 40.6027C26.7846 40.6486 18.8058 32.8289 18.8058 23.3099C18.8058 12.9066 26.7846 5.71101 36.4787 5.71289H41.0216C50.6011 5.71101 59.344 12.9032 59.344 23.3099C59.344 32.8255 50.6011 40.6027 41.0216 40.6027H36.4787Z" fill="white"></path></svg> 