<?xml version="1.0" encoding="UTF-8"?> <svg xmlns="http://www.w3.org/2000/svg" width="80" height="48" viewBox="0 0 80 48" fill="none"><rect x="0.552049" y="0.492235" width="78.1143" height="46.2701" rx="4.43011" stroke="white" stroke-width="0.984469"></rect><path d="M48.248 24.9854C48.0542 26.5844 49.9487 26.3944 50.6237 25.7255C51.1223 25.2312 51.2616 24.349 51.3745 23.6336C51.378 23.6112 51.3815 23.589 51.385 23.5669C49.8371 23.3751 48.409 23.6573 48.248 24.9854Z" fill="white"></path><path d="M58.4511 24.8004C58.4712 25.7164 58.9096 26.2688 59.7912 26.2497C61.3914 26.2149 61.6543 24.4608 61.898 22.8347C61.9684 22.3645 62.0373 21.905 62.1364 21.5009C61.655 21.3344 61.1792 21.1797 60.5222 21.2541C59.111 21.4139 58.416 23.1962 58.4511 24.8004Z" fill="white"></path><path d="M26.6235 25.232C26.7586 26.4962 28.4812 26.5077 29.1819 25.7564C29.7622 25.1341 30.2437 23.5961 30.0651 22.3643C29.8594 20.9454 27.8313 21.0484 27.1412 21.9016C27.0829 22.1963 27.0339 22.507 26.9831 22.8289C26.9467 23.0594 26.9094 23.2958 26.8671 23.5361C26.8389 23.6971 26.8024 23.8586 26.7659 24.02C26.6735 24.4293 26.5813 24.8375 26.6235 25.232Z" fill="white"></path><path d="M27.1412 21.1308C27.1512 21.1223 27.162 21.1138 27.1724 21.1053C27.1744 21.1263 27.1584 21.1292 27.1412 21.1308Z" fill="white"></path><path d="M33.3546 22.7652H36.4306C36.7095 21.574 36.034 21.1868 35.0905 21.2233C34.0881 21.2621 33.4519 22.0491 33.3546 22.7652Z" fill="white"></path><path fill-rule="evenodd" clip-rule="evenodd" d="M19.2646 9.84473H69.2712C68.2526 14.9279 67.2531 19.8983 66.2577 24.8489C66.0424 25.9196 65.8273 26.9893 65.6122 28.0591C65.5646 28.2956 65.5171 28.5332 65.4694 28.7712C65.2063 30.0854 64.9415 31.4082 64.6669 32.5973C63.9687 35.6205 61.3856 36.4254 57.6233 36.4254H8.95837C9.54062 33.6067 10.1037 30.7265 10.6703 27.8286C11.3614 24.2934 12.0578 20.7317 12.8003 17.2231C12.8923 16.7885 12.9749 16.345 13.0576 15.9005C13.2139 15.0609 13.3708 14.2179 13.5931 13.4259C14.245 11.1033 16.5026 9.97694 19.2646 9.84473ZM48.3375 21.2275C48.3937 21.0048 48.4499 20.7822 48.4917 20.5449C48.77 20.5368 49.0876 20.5108 49.4221 20.4834C50.9501 20.3584 52.8285 20.2047 52.9079 21.5933C52.9373 22.1075 52.8174 22.6652 52.694 23.239C52.6401 23.4899 52.5855 23.7438 52.5424 23.9985C52.5356 24.0389 52.5288 24.0791 52.522 24.1192C52.3637 25.0548 52.2189 25.9111 52.2074 26.959H51.0805C51.0628 26.5811 51.1159 26.2752 51.1719 25.9722C50.6322 26.8473 49.073 27.4841 47.7912 26.9282C47.1256 26.6394 46.7782 25.6049 47.0906 24.5536C47.557 22.9841 49.3307 22.6181 51.5069 22.8268L51.5093 22.8203C51.6055 22.5498 51.7356 22.1842 51.6593 21.84C51.4274 20.7956 49.0209 21.3972 48.248 21.5933C48.2763 21.4698 48.3069 21.3486 48.3375 21.2275ZM62.2584 20.6374C62.4528 19.7243 62.6029 18.766 62.7151 17.7696H64.0248C63.8798 18.6047 63.7209 19.4256 63.562 20.2466C63.1453 22.3993 62.7285 24.5521 62.5629 26.959H61.3751C61.3798 26.7006 61.4181 26.4761 61.4563 26.2516C61.4704 26.1693 61.4844 26.0869 61.4968 26.0029C61.4807 25.9491 61.416 26.0551 61.3496 26.164C61.3159 26.2192 61.2817 26.2752 61.2533 26.3114C61.1404 26.4545 60.9666 26.6607 60.7963 26.774C59.9173 27.3592 58.176 27.1927 57.5679 26.4963C57.215 26.0922 57.1179 25.5257 57.111 24.9545C57.0756 22.0009 59.0458 19.6079 62.2584 20.6374ZM27.1724 21.1053C27.758 20.6266 29.109 20.1233 30.2175 20.5449C32.4984 21.4124 31.1868 25.843 29.4864 26.774C28.6623 27.225 26.7094 27.4482 26.4103 26.2806C26.23 27.039 26.1144 27.863 25.9988 28.687C25.9452 29.0691 25.8916 29.4512 25.8315 29.8267H24.5219C25.1097 26.783 25.6666 23.7082 26.1362 20.5449H27.2631C27.2581 20.6478 27.2378 20.7351 27.2174 20.8224C27.197 20.9097 27.1766 20.997 27.1717 21.1C27.1721 21.1019 27.1723 21.1035 27.1724 21.1053ZM32.8672 21.3774C33.4357 20.7711 34.2356 20.4953 35.1819 20.4216C36.2614 20.3374 37.3221 20.564 37.6184 21.4392C37.7871 21.937 37.6844 22.4736 37.5848 22.9942C37.5517 23.167 37.519 23.338 37.4966 23.5052C36.0824 23.4685 34.6145 23.4597 33.2022 23.5052C32.983 24.4522 32.9869 25.5419 33.6591 25.9722C34.5493 26.5421 36.0523 26.0843 36.918 25.7564C36.8965 25.8885 36.8705 26.0161 36.8445 26.1437C36.8011 26.3569 36.7576 26.5702 36.7353 26.8048C34.6339 27.3226 32.0067 27.3992 31.7707 25.2629C31.6053 23.7655 32.1699 22.1212 32.8672 21.3774ZM23.6386 20.6374C23.636 20.5936 23.6337 20.5501 23.6691 20.5449H24.9788C24.527 22.6059 24.1666 24.7592 23.8519 26.959H22.5422C22.9596 24.9043 23.3501 22.8224 23.6386 20.6374ZM55.3446 21.5624C55.7209 20.973 56.6845 19.9898 57.842 20.5757C57.7907 20.7436 57.7599 20.9322 57.729 21.1209C57.708 21.2498 57.6869 21.3786 57.6593 21.5009C55.6093 20.9138 55.1982 22.8661 54.918 24.6462C54.8834 24.8668 54.8463 25.073 54.8104 25.2728C54.7106 25.8282 54.6198 26.3337 54.6135 26.959H53.2734C53.712 24.8847 54.0883 22.7473 54.4003 20.5449H55.5577C55.5097 20.6941 55.4834 20.8652 55.457 21.0364C55.4286 21.2209 55.4002 21.4055 55.3446 21.5624ZM43.0093 24.2144C42.9792 24.6107 43.0105 25.1322 43.1311 25.4479C43.5466 26.5344 45.3336 26.2789 46.2684 25.7871C46.2394 25.9264 46.2155 26.0708 46.1916 26.2151C46.1601 26.4053 46.1286 26.5955 46.0857 26.774C44.3749 27.3722 42.2623 27.2873 41.791 25.7255C41.3885 24.3908 41.958 22.2696 42.8266 21.3467C43.7141 20.4039 45.3878 20.2225 47.1515 20.5141C47.1329 20.657 47.11 20.7955 47.087 20.934C47.0531 21.1387 47.0191 21.3435 46.9992 21.5624C45.9239 21.1819 44.5756 21.0697 43.8926 21.7475C43.3977 22.2386 43.0771 23.3234 43.0093 24.2144ZM39.9029 21.6242C40.3261 20.8725 41.239 20.07 42.4003 20.5449C42.3848 20.6914 42.357 20.8254 42.3291 20.9593C42.2934 21.1311 42.2577 21.3028 42.248 21.5009C41.019 21.0567 40.1673 21.871 39.8419 22.8268C39.551 23.6814 39.4274 24.7857 39.3137 25.8028C39.2682 26.2093 39.2243 26.6019 39.1719 26.959H37.8622C37.9151 26.6778 37.9684 26.397 38.0216 26.1162C38.3675 24.2931 38.7134 22.47 38.9586 20.5449H40.116C40.0848 20.6871 40.0597 20.8356 40.0346 20.984C39.9974 21.2042 39.9602 21.4244 39.9029 21.6242ZM20.6844 21.5933C20.8957 20.3888 21.1064 19.1837 21.2935 17.9546H22.8164C22.2174 20.8841 21.7121 23.9085 21.2326 26.959H19.7402C19.8741 26.0988 20.0307 25.2617 20.1872 24.4245C20.3054 23.7924 20.4236 23.1604 20.5321 22.5185C19.4231 22.4115 18.0655 22.4471 16.8732 22.4783C16.7508 22.4815 16.6302 22.4847 16.5117 22.4876C16.2483 23.7138 16.0501 25.0061 15.852 26.2985C15.8182 26.5188 15.7844 26.739 15.7503 26.959H14.258C14.6645 24.9107 15.0186 22.8094 15.3726 20.708C15.5275 19.7887 15.6824 18.8694 15.8417 17.9546H17.3035C17.1823 18.5375 17.0777 19.1372 16.9731 19.7369C16.8659 20.3515 16.7587 20.9661 16.6336 21.5624C17.6766 21.6411 18.7682 21.6232 19.8554 21.6053C20.1323 21.6008 20.4089 21.5962 20.6844 21.5933ZM25.2225 17.9546C25.6066 18.2999 25.2704 19.1294 25.0093 19.3114C24.8431 19.4272 24.2841 19.5603 24.0346 19.3114C23.7784 19.0558 23.93 18.3678 24.0956 18.1396C24.1985 17.9977 24.35 17.9072 24.6133 17.8621C24.8972 17.8135 25.1008 17.8453 25.2225 17.9546Z" fill="white"></path></svg> 