<?xml version="1.0" encoding="UTF-8"?> <svg xmlns="http://www.w3.org/2000/svg" width="80" height="48" viewBox="0 0 80 48" fill="none"><rect x="0.492235" y="0.492235" width="78.1143" height="46.2701" rx="4.43011" stroke="white" stroke-width="0.984469"></rect><path d="M48.7269 33.2148C48.0259 33.2164 47.3315 33.0797 46.6838 32.8127C46.0361 32.5457 45.4479 32.1536 44.9531 31.6591L39.5027 26.2322C39.3098 26.0497 39.0538 25.948 38.7877 25.948C38.5216 25.948 38.2656 26.0497 38.0727 26.2322L32.6015 31.6798C32.1069 32.1745 31.5188 32.5667 30.871 32.8337C30.2233 33.1008 29.5288 33.2373 28.8277 33.2355H27.7532L34.6571 40.1095C36.8113 42.2545 40.3073 42.2545 42.4615 40.1095L49.3835 33.2148H48.7269ZM28.8277 14.0191C30.2552 14.0191 31.5945 14.5722 32.6015 15.5748L38.0727 21.0224C38.1667 21.1162 38.2783 21.1906 38.4013 21.2413C38.5242 21.2921 38.6559 21.3182 38.789 21.3182C38.9221 21.3182 39.0538 21.2921 39.1767 21.2413C39.2997 21.1906 39.4113 21.1162 39.5053 21.0224L44.9557 15.5955C45.45 15.1011 46.0378 14.7091 46.685 14.4421C47.3323 14.175 48.0263 14.0383 48.7269 14.0398H49.3835L42.4615 7.14766C41.4264 6.11766 40.0228 5.53906 38.5593 5.53906C37.0958 5.53906 35.6923 6.11766 34.6571 7.14766L27.7532 14.0217L28.8277 14.0191Z" fill="white"></path><path d="M55.1117 19.7405L50.9278 15.5747C50.8339 15.6131 50.7335 15.6333 50.632 15.6342H48.7295C47.7459 15.6342 46.7829 16.0321 46.09 16.7247L40.6396 22.1516C40.3972 22.3942 40.109 22.5867 39.7917 22.7181C39.4743 22.8495 39.134 22.9171 38.7903 22.9171C38.4466 22.9171 38.1063 22.8495 37.789 22.7181C37.4716 22.5867 37.1835 22.3942 36.9411 22.1516L31.4699 16.7015C30.768 16.0054 29.8184 15.6135 28.8278 15.6109H26.4919C26.395 15.6101 26.2992 15.5918 26.209 15.5566L22.0096 19.7405C19.8554 21.8854 19.8554 25.3664 22.0096 27.5139L26.209 31.6952C26.2982 31.6594 26.3932 31.6402 26.4893 31.6383H28.8278C29.814 31.6383 30.7743 31.2429 31.4699 30.5504L36.9385 25.1002C37.4375 24.6272 38.1 24.3633 38.789 24.3633C39.478 24.3633 40.1406 24.6272 40.6396 25.1002L46.09 30.5271C46.7829 31.2197 47.7459 31.6151 48.7295 31.6151H50.632C50.7358 31.6151 50.837 31.6409 50.9278 31.6771L55.1117 27.5113C57.2659 25.3664 57.2659 21.8854 55.1117 19.7405Z" fill="white"></path></svg> 