<?xml version="1.0" encoding="UTF-8"?> <svg xmlns="http://www.w3.org/2000/svg" width="368" height="34" viewBox="0 0 368 34" fill="none"><path d="M40.8611 14.9195C39.9717 14.9195 39.1671 14.7247 38.4471 14.3351C37.7356 13.937 37.1766 13.3949 36.77 12.7088C36.3634 12.0142 36.1601 11.235 36.1601 10.371C36.1601 9.50704 36.3634 8.73202 36.77 8.04593C37.1766 7.35137 37.7398 6.80928 38.4598 6.41965C39.1798 6.02155 39.9845 5.8225 40.8738 5.8225C41.5684 5.8225 42.2036 5.94108 42.7796 6.17825C43.3556 6.40695 43.8469 6.74999 44.2534 7.20738L43.4276 8.00782C42.7584 7.30479 41.9241 6.95327 40.9246 6.95327C40.264 6.95327 39.6668 7.1015 39.1332 7.39796C38.5996 7.69442 38.1803 8.10522 37.8754 8.63038C37.5789 9.14706 37.4307 9.72727 37.4307 10.371C37.4307 11.0147 37.5789 11.5992 37.8754 12.1243C38.1803 12.641 38.5996 13.0476 39.1332 13.3441C39.6668 13.6405 40.264 13.7887 40.9246 13.7887C41.9157 13.7887 42.75 13.433 43.4276 12.7215L44.2534 13.5219C43.8469 13.9793 43.3514 14.3266 42.7669 14.5638C42.1909 14.8009 41.5557 14.9195 40.8611 14.9195ZM48.4868 14.8941C47.8176 14.8941 47.2163 14.7459 46.6826 14.4494C46.149 14.153 45.7297 13.7464 45.4248 13.2297C45.1284 12.7046 44.9801 12.1116 44.9801 11.451C44.9801 10.7903 45.1284 10.2016 45.4248 9.68492C45.7297 9.15977 46.149 8.7532 46.6826 8.46521C47.2163 8.16875 47.8176 8.02052 48.4868 8.02052C49.1559 8.02052 49.7531 8.16875 50.2782 8.46521C50.8119 8.7532 51.2269 9.15977 51.5234 9.68492C51.8283 10.2016 51.9808 10.7903 51.9808 11.451C51.9808 12.1116 51.8283 12.7046 51.5234 13.2297C51.2269 13.7464 50.8119 14.153 50.2782 14.4494C49.7531 14.7459 49.1559 14.8941 48.4868 14.8941ZM48.4868 13.8269C48.9188 13.8269 49.3042 13.7294 49.643 13.5346C49.9903 13.3313 50.2613 13.0518 50.4561 12.6961C50.6509 12.3319 50.7483 11.9168 50.7483 11.451C50.7483 10.9851 50.6509 10.5743 50.4561 10.2185C50.2613 9.85432 49.9903 9.57481 49.643 9.37999C49.3042 9.18518 48.9188 9.08777 48.4868 9.08777C48.0548 9.08777 47.6652 9.18518 47.3179 9.37999C46.9791 9.57481 46.708 9.85432 46.5048 10.2185C46.3099 10.5743 46.2125 10.9851 46.2125 11.451C46.2125 11.9168 46.3099 12.3319 46.5048 12.6961C46.708 13.0518 46.9791 13.3313 47.3179 13.5346C47.6652 13.7294 48.0548 13.8269 48.4868 13.8269ZM62.0912 8.02052C62.9382 8.02052 63.6074 8.26616 64.0987 8.75743C64.5984 9.2487 64.8483 9.97714 64.8483 10.9427V14.8179H63.6286V11.0825C63.6286 10.4303 63.4761 9.93903 63.1712 9.60869C62.8747 9.27835 62.447 9.11318 61.8879 9.11318C61.2696 9.11318 60.7783 9.30799 60.4141 9.69762C60.0499 10.0788 59.8678 10.6293 59.8678 11.3493V14.8179H58.6481V11.0825C58.6481 10.4303 58.4956 9.93903 58.1907 9.60869C57.8942 9.27835 57.4665 9.11318 56.9074 9.11318C56.2891 9.11318 55.7979 9.30799 55.4336 9.69762C55.0694 10.0788 54.8873 10.6293 54.8873 11.3493V14.8179H53.6676V8.08405H54.8365V9.08777C55.0821 8.74049 55.404 8.47791 55.8021 8.30004C56.2002 8.11369 56.6533 8.02052 57.1616 8.02052C57.6867 8.02052 58.1526 8.1264 58.5591 8.33815C58.9657 8.54991 59.2791 8.85907 59.4993 9.26564C59.7534 8.87601 60.105 8.57109 60.5539 8.35086C61.0113 8.13063 61.5237 8.02052 62.0912 8.02052ZM70.6627 8.02052C71.315 8.02052 71.8994 8.16452 72.4161 8.4525C72.9328 8.74049 73.3351 9.14283 73.6231 9.65951C73.9195 10.1762 74.0678 10.7733 74.0678 11.451C74.0678 12.1286 73.9195 12.73 73.6231 13.2551C73.3351 13.7718 72.9328 14.1741 72.4161 14.4621C71.8994 14.7501 71.315 14.8941 70.6627 14.8941C70.1799 14.8941 69.7353 14.8009 69.3287 14.6146C68.9306 14.4282 68.5918 14.1572 68.3123 13.8014V17.2827H67.0926V8.08405H68.2614V9.1513C68.5325 8.77861 68.8755 8.49909 69.2906 8.31274C69.7056 8.11793 70.163 8.02052 70.6627 8.02052ZM70.5611 13.8269C70.9931 13.8269 71.3785 13.7294 71.7173 13.5346C72.0646 13.3313 72.3356 13.0518 72.5304 12.6961C72.7337 12.3319 72.8354 11.9168 72.8354 11.451C72.8354 10.9851 72.7337 10.5743 72.5304 10.2185C72.3356 9.85432 72.0646 9.57481 71.7173 9.37999C71.3785 9.18518 70.9931 9.08777 70.5611 9.08777C70.1376 9.08777 69.7522 9.18941 69.4049 9.3927C69.0661 9.58751 68.7951 9.86279 68.5918 10.2185C68.397 10.5743 68.2996 10.9851 68.2996 11.451C68.2996 11.9168 68.397 12.3319 68.5918 12.6961C68.7866 13.0518 69.0576 13.3313 69.4049 13.5346C69.7522 13.7294 70.1376 13.8269 70.5611 13.8269ZM76.9219 9.21482C77.1337 8.82519 77.4471 8.52873 77.8621 8.32545C78.2771 8.12216 78.7811 8.02052 79.374 8.02052V9.20212C79.3063 9.19365 79.2131 9.18941 79.0945 9.18941C78.4338 9.18941 77.9129 9.38846 77.5318 9.78656C77.1591 10.1762 76.9727 10.7352 76.9727 11.4637V14.8179H75.753V8.08405H76.9219V9.21482ZM83.3171 8.02052C84.2488 8.02052 84.9603 8.24922 85.4515 8.70661C85.9513 9.164 86.2012 9.84585 86.2012 10.7522V14.8179H85.045V13.9285C84.8417 14.2419 84.5495 14.4833 84.1683 14.6527C83.7956 14.8136 83.3509 14.8941 82.8343 14.8941C82.0804 14.8941 81.4748 14.712 81.0174 14.3478C80.5685 13.9836 80.344 13.505 80.344 12.9121C80.344 12.3192 80.56 11.8448 80.992 11.4891C81.424 11.1249 82.11 10.9427 83.0502 10.9427H84.9815V10.7013C84.9815 10.1762 84.829 9.77386 84.5241 9.49434C84.2191 9.21482 83.7702 9.07506 83.1773 9.07506C82.7792 9.07506 82.3896 9.14283 82.0084 9.27835C81.6272 9.4054 81.3054 9.57904 81.0428 9.79927L80.5346 8.88448C80.8819 8.60497 81.2969 8.39321 81.7797 8.24922C82.2625 8.09675 82.775 8.02052 83.3171 8.02052ZM83.0375 13.9539C83.5034 13.9539 83.9057 13.8523 84.2445 13.649C84.5834 13.4372 84.829 13.1408 84.9815 12.7596V11.8194H83.1011C82.0677 11.8194 81.551 12.1667 81.551 12.8613C81.551 13.2001 81.6823 13.4669 81.9449 13.6617C82.2075 13.8565 82.5717 13.9539 83.0375 13.9539ZM39.5271 27.9703C38.824 27.9703 38.1422 27.8772 37.4815 27.6908C36.8293 27.496 36.3041 27.2461 35.906 26.9412L36.6048 25.3912C36.986 25.6707 37.4392 25.8951 37.9643 26.0645C38.4895 26.2339 39.0146 26.3186 39.5398 26.3186C40.1242 26.3186 40.5562 26.2339 40.8357 26.0645C41.1152 25.8867 41.255 25.6537 41.255 25.3657C41.255 25.154 41.1703 24.9803 41.0009 24.8448C40.8399 24.7008 40.6282 24.5865 40.3656 24.5018C40.1115 24.4171 39.7642 24.3239 39.3238 24.2223C38.6462 24.0613 38.0914 23.9004 37.6594 23.7395C37.2274 23.5785 36.8547 23.3202 36.5413 22.9644C36.2364 22.6087 36.0839 22.1344 36.0839 21.5414C36.0839 21.0248 36.2237 20.5589 36.5032 20.1439C36.7827 19.7203 37.202 19.3858 37.761 19.1401C38.3285 18.8945 39.0188 18.7717 39.832 18.7717C40.3995 18.7717 40.9543 18.8394 41.4964 18.975C42.0385 19.1105 42.5128 19.3053 42.9194 19.5594L42.2841 21.1222C41.4625 20.6563 40.6409 20.4234 39.8193 20.4234C39.2433 20.4234 38.8156 20.5165 38.536 20.7029C38.265 20.8892 38.1295 21.1349 38.1295 21.4398C38.1295 21.7447 38.2862 21.9734 38.5996 22.1259C38.9214 22.2699 39.4085 22.4139 40.0607 22.5579C40.7383 22.7188 41.2931 22.8797 41.7251 23.0407C42.1571 23.2016 42.5255 23.4557 42.8304 23.803C43.1438 24.1503 43.3005 24.6204 43.3005 25.2133C43.3005 25.7215 43.1565 26.1874 42.8686 26.6109C42.589 27.0259 42.1655 27.3562 41.598 27.6019C41.0305 27.8475 40.3402 27.9703 39.5271 27.9703ZM51.2629 24.4255C51.2629 24.451 51.2502 24.6288 51.2248 24.9592H46.0537C46.1469 25.3827 46.3671 25.7173 46.7144 25.9629C47.0617 26.2085 47.4937 26.3313 48.0103 26.3313C48.3661 26.3313 48.6795 26.2805 48.9505 26.1789C49.2301 26.0688 49.4884 25.8994 49.7256 25.6707L50.7801 26.8142C50.1364 27.5511 49.1962 27.9195 47.9595 27.9195C47.1887 27.9195 46.5069 27.7713 45.914 27.4748C45.3211 27.1699 44.8637 26.7506 44.5418 26.217C44.2199 25.6834 44.059 25.0778 44.059 24.4001C44.059 23.731 44.2157 23.1296 44.5291 22.596C44.851 22.0539 45.2872 21.6346 45.8377 21.3382C46.3968 21.0332 47.0193 20.8808 47.7054 20.8808C48.3746 20.8808 48.9802 21.0248 49.5223 21.3127C50.0644 21.6007 50.4879 22.0158 50.7928 22.5579C51.1062 23.0915 51.2629 23.7141 51.2629 24.4255ZM47.7181 22.38C47.2692 22.38 46.8923 22.507 46.5873 22.7612C46.2824 23.0153 46.0961 23.3625 46.0283 23.803H49.3952C49.3275 23.371 49.1411 23.028 48.8362 22.7739C48.5313 22.5113 48.1586 22.38 47.7181 22.38ZM59.6339 20.9824V26.6744C59.6339 27.928 59.3078 28.8597 58.6556 29.4696C58.0034 30.0794 57.0505 30.3843 55.7969 30.3843C55.1362 30.3843 54.5094 30.3039 53.9165 30.1429C53.3236 29.982 52.8323 29.7491 52.4427 29.4442L53.2304 28.0212C53.5184 28.2583 53.8827 28.4447 54.3231 28.5802C54.7636 28.7242 55.204 28.7962 55.6445 28.7962C56.3305 28.7962 56.8345 28.6395 57.1564 28.3261C57.4867 28.0212 57.6519 27.5553 57.6519 26.9285V26.6363C57.1352 27.2038 56.4152 27.4875 55.492 27.4875C54.8652 27.4875 54.2892 27.352 53.7641 27.081C53.2474 26.8014 52.8366 26.4118 52.5317 25.9121C52.2267 25.4123 52.0743 24.8364 52.0743 24.1841C52.0743 23.5319 52.2267 22.956 52.5317 22.4562C52.8366 21.9565 53.2474 21.5711 53.7641 21.3C54.2892 21.0205 54.8652 20.8808 55.492 20.8808C56.483 20.8808 57.2369 21.2069 57.7535 21.8591V20.9824H59.6339ZM55.8859 25.8613C56.411 25.8613 56.8388 25.7088 57.1691 25.4039C57.5079 25.0905 57.6773 24.6839 57.6773 24.1841C57.6773 23.6844 57.5079 23.2821 57.1691 22.9771C56.8388 22.6637 56.411 22.507 55.8859 22.507C55.3607 22.507 54.9287 22.6637 54.5899 22.9771C54.2511 23.2821 54.0817 23.6844 54.0817 24.1841C54.0817 24.6839 54.2511 25.0905 54.5899 25.4039C54.9287 25.7088 55.3607 25.8613 55.8859 25.8613ZM68.365 20.9824V27.8179H66.4846V27.0047C66.222 27.3012 65.9086 27.5299 65.5444 27.6908C65.1802 27.8433 64.7863 27.9195 64.3628 27.9195C63.4649 27.9195 62.7535 27.6612 62.2283 27.1445C61.7031 26.6278 61.4406 25.8613 61.4406 24.8448V20.9824H63.4226V24.5526C63.4226 25.6537 63.8842 26.2043 64.8075 26.2043C65.2818 26.2043 65.663 26.0518 65.951 25.7469C66.2389 25.4335 66.3829 24.9719 66.3829 24.362V20.9824H68.365ZM72.0943 21.8845C72.3314 21.5541 72.6491 21.3043 73.0472 21.1349C73.4538 20.9655 73.9196 20.8808 74.4448 20.8808V22.7103C74.2245 22.6934 74.0763 22.6849 74.0001 22.6849C73.4326 22.6849 72.9879 22.8459 72.666 23.1677C72.3442 23.4811 72.1832 23.9555 72.1832 24.5907V27.8179H70.2012V20.9824H72.0943V21.8845ZM78.3431 20.8808C79.4019 20.8808 80.215 21.1349 80.7825 21.6431C81.35 22.1428 81.6338 22.9009 81.6338 23.9173V27.8179H79.7788V26.9666C79.4061 27.6019 78.7116 27.9195 77.6951 27.9195C77.17 27.9195 76.7126 27.8306 76.323 27.6527C75.9418 27.4748 75.6496 27.2292 75.4463 26.9158C75.243 26.6024 75.1414 26.2466 75.1414 25.8485C75.1414 25.2133 75.3785 24.7135 75.8529 24.3493C76.3357 23.9851 77.0768 23.803 78.0763 23.803H79.6518C79.6518 23.371 79.5205 23.0407 79.2579 22.812C78.9953 22.5748 78.6015 22.4562 78.0763 22.4562C77.7121 22.4562 77.3521 22.5155 76.9964 22.6341C76.6491 22.7442 76.3526 22.8967 76.107 23.0915L75.3955 21.7066C75.7682 21.444 76.2129 21.2407 76.7295 21.0968C77.2547 20.9528 77.7926 20.8808 78.3431 20.8808ZM78.1907 26.5855C78.5295 26.5855 78.8302 26.5092 79.0927 26.3568C79.3553 26.1958 79.5417 25.9629 79.6518 25.658V24.9592H78.2923C77.4792 24.9592 77.0726 25.226 77.0726 25.7596C77.0726 26.0137 77.17 26.217 77.3648 26.3695C77.5681 26.5135 77.8434 26.5855 78.1907 26.5855Z" fill="white"></path><path d="M16.449 30.0144C16.847 30.2269 17.3464 30.2256 17.7444 30.0131C28.589 24.1874 29.3592 12.8054 29.3497 9.56906C29.3487 9.30895 29.2718 9.05478 29.1285 8.83769C28.9853 8.6206 28.7818 8.45001 28.543 8.34681L17.6469 3.52005C17.4735 3.44361 17.2861 3.40425 17.0966 3.40448C16.9071 3.40471 16.7197 3.44454 16.5465 3.5214L5.72621 8.34816C5.49095 8.45142 5.29035 8.62013 5.14828 8.83419C5.00621 9.04825 4.92867 9.29864 4.9249 9.55553C4.87888 12.7756 5.52723 24.182 16.449 30.0144ZM12.6401 14.5014L15.7438 17.6051L21.5546 11.7943L23.4685 13.7082L15.7438 21.4329L10.7262 16.4153L12.6401 14.5014Z" fill="white"></path><path d="M295.903 5.92414C297.055 5.92414 297.961 6.19942 298.622 6.74999C299.283 7.30055 299.613 8.05864 299.613 9.02424C299.613 9.98985 299.283 10.7479 298.622 11.2985C297.961 11.8491 297.055 12.1243 295.903 12.1243H293.705V14.8179H292.435V5.92414H295.903ZM295.865 11.019C296.67 11.019 297.284 10.8496 297.707 10.5108C298.131 10.1635 298.343 9.66798 298.343 9.02424C298.343 8.38051 298.131 7.88923 297.707 7.55042C297.284 7.20315 296.67 7.02951 295.865 7.02951H293.705V11.019H295.865ZM302.359 9.21482C302.571 8.82519 302.884 8.52873 303.299 8.32545C303.714 8.12216 304.218 8.02052 304.811 8.02052V9.20212C304.743 9.19365 304.65 9.18941 304.532 9.18941C303.871 9.18941 303.35 9.38846 302.969 9.78656C302.596 10.1762 302.41 10.7352 302.41 11.4637V14.8179H301.19V8.08405H302.359V9.21482ZM306.315 8.08405H307.534V14.8179H306.315V8.08405ZM306.924 6.78811C306.687 6.78811 306.488 6.71187 306.327 6.55941C306.175 6.40695 306.099 6.2206 306.099 6.00038C306.099 5.78015 306.175 5.5938 306.327 5.44134C306.488 5.28041 306.687 5.19994 306.924 5.19994C307.162 5.19994 307.356 5.27617 307.509 5.42864C307.67 5.57263 307.75 5.75474 307.75 5.97496C307.75 6.20366 307.67 6.39848 307.509 6.55941C307.356 6.71187 307.162 6.78811 306.924 6.78811ZM315.822 8.08405L312.874 14.8179H311.629L308.681 8.08405H309.952L312.264 13.4838L314.628 8.08405H315.822ZM319.201 8.02052C320.133 8.02052 320.845 8.24922 321.336 8.70661C321.836 9.164 322.086 9.84585 322.086 10.7522V14.8179H320.929V13.9285C320.726 14.2419 320.434 14.4833 320.053 14.6527C319.68 14.8136 319.235 14.8941 318.719 14.8941C317.965 14.8941 317.359 14.712 316.902 14.3478C316.453 13.9836 316.228 13.505 316.228 12.9121C316.228 12.3192 316.444 11.8448 316.876 11.4891C317.308 11.1249 317.994 10.9427 318.935 10.9427H320.866V10.7013C320.866 10.1762 320.713 9.77386 320.408 9.49434C320.103 9.21482 319.655 9.07506 319.062 9.07506C318.664 9.07506 318.274 9.14283 317.893 9.27835C317.512 9.4054 317.19 9.57904 316.927 9.79927L316.419 8.88448C316.766 8.60497 317.181 8.39321 317.664 8.24922C318.147 8.09675 318.659 8.02052 319.201 8.02052ZM318.922 13.9539C319.388 13.9539 319.79 13.8523 320.129 13.649C320.468 13.4372 320.713 13.1408 320.866 12.7596V11.8194H318.985C317.952 11.8194 317.435 12.1667 317.435 12.8613C317.435 13.2001 317.567 13.4669 317.829 13.6617C318.092 13.8565 318.456 13.9539 318.922 13.9539ZM327.315 14.8941C326.629 14.8941 326.015 14.7459 325.473 14.4494C324.939 14.153 324.52 13.7464 324.215 13.2297C323.91 12.7046 323.757 12.1116 323.757 11.451C323.757 10.7903 323.91 10.2016 324.215 9.68492C324.52 9.15977 324.939 8.7532 325.473 8.46521C326.015 8.16875 326.629 8.02052 327.315 8.02052C327.925 8.02052 328.467 8.14334 328.941 8.38898C329.424 8.63461 329.797 8.99036 330.059 9.45622L329.132 10.0534C328.92 9.73151 328.657 9.4901 328.344 9.32917C328.031 9.16824 327.683 9.08777 327.302 9.08777C326.862 9.08777 326.464 9.18518 326.108 9.37999C325.761 9.57481 325.485 9.85432 325.282 10.2185C325.087 10.5743 324.99 10.9851 324.99 11.451C324.99 11.9253 325.087 12.3446 325.282 12.7088C325.485 13.0645 325.761 13.3398 326.108 13.5346C326.464 13.7294 326.862 13.8269 327.302 13.8269C327.683 13.8269 328.031 13.7464 328.344 13.5855C328.657 13.4245 328.92 13.1831 329.132 12.8613L330.059 13.4457C329.797 13.9116 329.424 14.2715 328.941 14.5256C328.467 14.7713 327.925 14.8941 327.315 14.8941ZM331.638 8.08405H332.858V14.8179H331.638V8.08405ZM332.248 6.78811C332.011 6.78811 331.812 6.71187 331.651 6.55941C331.499 6.40695 331.422 6.2206 331.422 6.00038C331.422 5.78015 331.499 5.5938 331.651 5.44134C331.812 5.28041 332.011 5.19994 332.248 5.19994C332.485 5.19994 332.68 5.27617 332.833 5.42864C332.994 5.57263 333.074 5.75474 333.074 5.97496C333.074 6.20366 332.994 6.39848 332.833 6.55941C332.68 6.71187 332.485 6.78811 332.248 6.78811ZM341.54 5.39052V14.8179H340.371V13.7506C340.1 14.1233 339.757 14.4071 339.342 14.6019C338.926 14.7967 338.469 14.8941 337.969 14.8941C337.317 14.8941 336.733 14.7501 336.216 14.4621C335.699 14.1741 335.293 13.7718 334.996 13.2551C334.708 12.73 334.564 12.1286 334.564 11.451C334.564 10.7733 334.708 10.1762 334.996 9.65951C335.293 9.14283 335.699 8.74049 336.216 8.4525C336.733 8.16452 337.317 8.02052 337.969 8.02052C338.452 8.02052 338.897 8.11369 339.303 8.30004C339.71 8.47791 340.049 8.74473 340.32 9.10047V5.39052H341.54ZM338.071 13.8269C338.494 13.8269 338.88 13.7294 339.227 13.5346C339.574 13.3313 339.845 13.0518 340.04 12.6961C340.235 12.3319 340.333 11.9168 340.333 11.451C340.333 10.9851 340.235 10.5743 340.04 10.2185C339.845 9.85432 339.574 9.57481 339.227 9.37999C338.88 9.18518 338.494 9.08777 338.071 9.08777C337.639 9.08777 337.249 9.18518 336.902 9.37999C336.563 9.57481 336.292 9.85432 336.089 10.2185C335.894 10.5743 335.797 10.9851 335.797 11.451C335.797 11.9168 335.894 12.3319 336.089 12.6961C336.292 13.0518 336.563 13.3313 336.902 13.5346C337.249 13.7294 337.639 13.8269 338.071 13.8269ZM346.299 8.02052C347.231 8.02052 347.943 8.24922 348.434 8.70661C348.934 9.164 349.184 9.84585 349.184 10.7522V14.8179H348.027V13.9285C347.824 14.2419 347.532 14.4833 347.151 14.6527C346.778 14.8136 346.333 14.8941 345.817 14.8941C345.063 14.8941 344.457 14.712 344 14.3478C343.551 13.9836 343.326 13.505 343.326 12.9121C343.326 12.3192 343.542 11.8448 343.974 11.4891C344.406 11.1249 345.092 10.9427 346.033 10.9427H347.964V10.7013C347.964 10.1762 347.811 9.77386 347.506 9.49434C347.202 9.21482 346.753 9.07506 346.16 9.07506C345.762 9.07506 345.372 9.14283 344.991 9.27835C344.61 9.4054 344.288 9.57904 344.025 9.79927L343.517 8.88448C343.864 8.60497 344.279 8.39321 344.762 8.24922C345.245 8.09675 345.757 8.02052 346.299 8.02052ZM346.02 13.9539C346.486 13.9539 346.888 13.8523 347.227 13.649C347.566 13.4372 347.811 13.1408 347.964 12.7596V11.8194H346.083C345.05 11.8194 344.533 12.1667 344.533 12.8613C344.533 13.2001 344.665 13.4669 344.927 13.6617C345.19 13.8565 345.554 13.9539 346.02 13.9539ZM357.831 5.39052V14.8179H356.662V13.7506C356.391 14.1233 356.048 14.4071 355.633 14.6019C355.218 14.7967 354.76 14.8941 354.26 14.8941C353.608 14.8941 353.024 14.7501 352.507 14.4621C351.99 14.1741 351.584 13.7718 351.287 13.2551C350.999 12.73 350.855 12.1286 350.855 11.451C350.855 10.7733 350.999 10.1762 351.287 9.65951C351.584 9.14283 351.99 8.74049 352.507 8.4525C353.024 8.16452 353.608 8.02052 354.26 8.02052C354.743 8.02052 355.188 8.11369 355.595 8.30004C356.001 8.47791 356.34 8.74473 356.611 9.10047V5.39052H357.831ZM354.362 13.8269C354.786 13.8269 355.171 13.7294 355.518 13.5346C355.866 13.3313 356.137 13.0518 356.331 12.6961C356.526 12.3319 356.624 11.9168 356.624 11.451C356.624 10.9851 356.526 10.5743 356.331 10.2185C356.137 9.85432 355.866 9.57481 355.518 9.37999C355.171 9.18518 354.786 9.08777 354.362 9.08777C353.93 9.08777 353.54 9.18518 353.193 9.37999C352.854 9.57481 352.583 9.85432 352.38 10.2185C352.185 10.5743 352.088 10.9851 352.088 11.451C352.088 11.9168 352.185 12.3319 352.38 12.6961C352.583 13.0518 352.854 13.3313 353.193 13.5346C353.54 13.7294 353.93 13.8269 354.362 13.8269ZM366.224 11.4891C366.224 11.5822 366.216 11.7051 366.199 11.8575H360.736C360.812 12.4504 361.07 12.929 361.511 13.2932C361.96 13.649 362.514 13.8269 363.175 13.8269C363.98 13.8269 364.628 13.5558 365.119 13.0137L365.792 13.8014C365.487 14.1572 365.106 14.4282 364.649 14.6146C364.2 14.8009 363.696 14.8941 363.137 14.8941C362.425 14.8941 361.794 14.7501 361.244 14.4621C360.693 14.1657 360.265 13.7549 359.961 13.2297C359.664 12.7046 359.516 12.1116 359.516 11.451C359.516 10.7988 359.66 10.2101 359.948 9.68492C360.244 9.15977 360.647 8.7532 361.155 8.46521C361.672 8.16875 362.252 8.02052 362.896 8.02052C363.539 8.02052 364.111 8.16875 364.611 8.46521C365.119 8.7532 365.513 9.15977 365.792 9.68492C366.08 10.2101 366.224 10.8115 366.224 11.4891ZM362.896 9.04965C362.311 9.04965 361.82 9.22753 361.422 9.58328C361.032 9.93903 360.803 10.4049 360.736 10.9809H365.055C364.988 10.4134 364.755 9.95173 364.357 9.59598C363.967 9.23176 363.48 9.04965 362.896 9.04965ZM296.005 18.9241C296.793 18.9241 297.474 19.0554 298.05 19.318C298.635 19.5806 299.084 19.9533 299.397 20.4361C299.711 20.9189 299.867 21.4906 299.867 22.1513C299.867 22.8035 299.711 23.3752 299.397 23.8665C299.084 24.3493 298.635 24.722 298.05 24.9846C297.474 25.2387 296.793 25.3657 296.005 25.3657H294.213V27.8179H292.155V18.9241H296.005ZM295.89 23.6886C296.509 23.6886 296.979 23.5574 297.301 23.2948C297.623 23.0237 297.784 22.6426 297.784 22.1513C297.784 21.6516 297.623 21.2704 297.301 21.0078C296.979 20.7368 296.509 20.6012 295.89 20.6012H294.213V23.6886H295.89ZM303.09 21.8845C303.327 21.5541 303.645 21.3043 304.043 21.1349C304.45 20.9655 304.915 20.8808 305.441 20.8808V22.7103C305.22 22.6934 305.072 22.6849 304.996 22.6849C304.428 22.6849 303.984 22.8459 303.662 23.1677C303.34 23.4811 303.179 23.9555 303.179 24.5907V27.8179H301.197V20.9824H303.09V21.8845ZM309.81 27.9195C309.09 27.9195 308.442 27.7713 307.866 27.4748C307.298 27.1699 306.853 26.7506 306.532 26.217C306.21 25.6834 306.049 25.0778 306.049 24.4001C306.049 23.7225 306.21 23.1169 306.532 22.5833C306.853 22.0497 307.298 21.6346 307.866 21.3382C308.442 21.0332 309.09 20.8808 309.81 20.8808C310.53 20.8808 311.173 21.0332 311.741 21.3382C312.308 21.6346 312.753 22.0497 313.075 22.5833C313.397 23.1169 313.558 23.7225 313.558 24.4001C313.558 25.0778 313.397 25.6834 313.075 26.217C312.753 26.7506 312.308 27.1699 311.741 27.4748C311.173 27.7713 310.53 27.9195 309.81 27.9195ZM309.81 26.2932C310.318 26.2932 310.733 26.1238 311.055 25.785C311.385 25.4377 311.55 24.9761 311.55 24.4001C311.55 23.8242 311.385 23.3668 311.055 23.028C310.733 22.6807 310.318 22.507 309.81 22.507C309.301 22.507 308.882 22.6807 308.552 23.028C308.221 23.3668 308.056 23.8242 308.056 24.4001C308.056 24.9761 308.221 25.4377 308.552 25.785C308.882 26.1238 309.301 26.2932 309.81 26.2932ZM319.291 27.4875C319.096 27.6315 318.855 27.7416 318.567 27.8179C318.288 27.8856 317.991 27.9195 317.678 27.9195C316.865 27.9195 316.233 27.712 315.785 27.297C315.344 26.8819 315.124 26.2721 315.124 25.4674V22.6595H314.069V21.1349H315.124V19.4705H317.106V21.1349H318.808V22.6595H317.106V25.442C317.106 25.73 317.178 25.9544 317.322 26.1154C317.474 26.2678 317.686 26.3441 317.957 26.3441C318.271 26.3441 318.537 26.2594 318.758 26.0899L319.291 27.4875ZM326.889 24.4255C326.889 24.451 326.876 24.6288 326.85 24.9592H321.679C321.773 25.3827 321.993 25.7173 322.34 25.9629C322.687 26.2085 323.119 26.3313 323.636 26.3313C323.992 26.3313 324.305 26.2805 324.576 26.1789C324.856 26.0688 325.114 25.8994 325.351 25.6707L326.406 26.8142C325.762 27.5511 324.822 27.9195 323.585 27.9195C322.814 27.9195 322.133 27.7713 321.54 27.4748C320.947 27.1699 320.489 26.7506 320.167 26.217C319.846 25.6834 319.685 25.0778 319.685 24.4001C319.685 23.731 319.841 23.1296 320.155 22.596C320.477 22.0539 320.913 21.6346 321.463 21.3382C322.022 21.0332 322.645 20.8808 323.331 20.8808C324 20.8808 324.606 21.0248 325.148 21.3127C325.69 21.6007 326.114 22.0158 326.419 22.5579C326.732 23.0915 326.889 23.7141 326.889 24.4255ZM323.344 22.38C322.895 22.38 322.518 22.507 322.213 22.7612C321.908 23.0153 321.722 23.3625 321.654 23.803H325.021C324.953 23.371 324.767 23.028 324.462 22.7739C324.157 22.5113 323.784 22.38 323.344 22.38ZM335.26 20.9824V26.6744C335.26 27.928 334.934 28.8597 334.281 29.4696C333.629 30.0794 332.676 30.3843 331.423 30.3843C330.762 30.3843 330.135 30.3039 329.542 30.1429C328.949 29.982 328.458 29.7491 328.068 29.4442L328.856 28.0212C329.144 28.2583 329.508 28.4447 329.949 28.5802C330.389 28.7242 330.83 28.7962 331.27 28.7962C331.956 28.7962 332.46 28.6395 332.782 28.3261C333.112 28.0212 333.278 27.5553 333.278 26.9285V26.6363C332.761 27.2038 332.041 27.4875 331.118 27.4875C330.491 27.4875 329.915 27.352 329.39 27.081C328.873 26.8014 328.462 26.4118 328.157 25.9121C327.852 25.4123 327.7 24.8364 327.7 24.1841C327.7 23.5319 327.852 22.956 328.157 22.4562C328.462 21.9565 328.873 21.5711 329.39 21.3C329.915 21.0205 330.491 20.8808 331.118 20.8808C332.109 20.8808 332.863 21.2069 333.379 21.8591V20.9824H335.26ZM331.512 25.8613C332.037 25.8613 332.464 25.7088 332.795 25.4039C333.134 25.0905 333.303 24.6839 333.303 24.1841C333.303 23.6844 333.134 23.2821 332.795 22.9771C332.464 22.6637 332.037 22.507 331.512 22.507C330.986 22.507 330.554 22.6637 330.216 22.9771C329.877 23.2821 329.707 23.6844 329.707 24.1841C329.707 24.6839 329.877 25.0905 330.216 25.4039C330.554 25.7088 330.986 25.8613 331.512 25.8613ZM337.104 20.9824H339.086V27.8179H337.104V20.9824ZM338.095 20.0295C337.731 20.0295 337.435 19.9236 337.206 19.7119C336.977 19.5001 336.863 19.2375 336.863 18.9241C336.863 18.6107 336.977 18.3482 337.206 18.1364C337.435 17.9247 337.731 17.8188 338.095 17.8188C338.46 17.8188 338.756 17.9204 338.985 18.1237C339.213 18.327 339.328 18.5811 339.328 18.886C339.328 19.2164 339.213 19.4916 338.985 19.7119C338.756 19.9236 338.46 20.0295 338.095 20.0295ZM347.888 18.3905V27.8179H345.995V27.0301C345.504 27.6231 344.793 27.9195 343.861 27.9195C343.217 27.9195 342.633 27.7755 342.108 27.4875C341.591 27.1995 341.184 26.7887 340.888 26.2551C340.591 25.7215 340.443 25.1032 340.443 24.4001C340.443 23.6971 340.591 23.0788 340.888 22.5452C341.184 22.0115 341.591 21.6007 342.108 21.3127C342.633 21.0248 343.217 20.8808 343.861 20.8808C344.733 20.8808 345.415 21.156 345.906 21.7066V18.3905H347.888ZM344.204 26.2932C344.704 26.2932 345.119 26.1238 345.449 25.785C345.779 25.4377 345.945 24.9761 345.945 24.4001C345.945 23.8242 345.779 23.3668 345.449 23.028C345.119 22.6807 344.704 22.507 344.204 22.507C343.696 22.507 343.276 22.6807 342.946 23.028C342.616 23.3668 342.451 23.8242 342.451 24.4001C342.451 24.9761 342.616 25.4377 342.946 25.785C343.276 26.1238 343.696 26.2932 344.204 26.2932ZM352.48 20.8808C353.539 20.8808 354.352 21.1349 354.919 21.6431C355.487 22.1428 355.771 22.9009 355.771 23.9173V27.8179H353.916V26.9666C353.543 27.6019 352.848 27.9195 351.832 27.9195C351.307 27.9195 350.849 27.8306 350.46 27.6527C350.079 27.4748 349.786 27.2292 349.583 26.9158C349.38 26.6024 349.278 26.2466 349.278 25.8485C349.278 25.2133 349.515 24.7135 349.99 24.3493C350.472 23.9851 351.214 23.803 352.213 23.803H353.789C353.789 23.371 353.657 23.0407 353.395 22.812C353.132 22.5748 352.738 22.4562 352.213 22.4562C351.849 22.4562 351.489 22.5155 351.133 22.6341C350.786 22.7442 350.489 22.8967 350.244 23.0915L349.532 21.7066C349.905 21.444 350.35 21.2407 350.866 21.0968C351.391 20.9528 351.929 20.8808 352.48 20.8808ZM352.327 26.5855C352.666 26.5855 352.967 26.5092 353.23 26.3568C353.492 26.1958 353.678 25.9629 353.789 25.658V24.9592H352.429C351.616 24.9592 351.209 25.226 351.209 25.7596C351.209 26.0137 351.307 26.217 351.502 26.3695C351.705 26.5135 351.98 26.5855 352.327 26.5855Z" fill="white"></path><path d="M281.084 12.7513V10.0442C281.084 6.25424 278.107 3.27643 274.317 3.27643C270.527 3.27643 267.549 6.25424 267.549 10.0442V12.7513C265.248 12.7513 263.488 14.5109 263.488 16.8119V26.2868C263.488 28.5878 265.248 30.3474 267.549 30.3474H281.084C283.385 30.3474 285.145 28.5878 285.145 26.2868V16.8119C285.145 14.5109 283.385 12.7513 281.084 12.7513ZM270.256 10.0442C270.256 7.74314 272.016 5.98353 274.317 5.98353C276.618 5.98353 278.377 7.74314 278.377 10.0442V12.7513H270.256V10.0442ZM275.805 21.5494L275.67 21.6847V23.5797C275.67 24.3918 275.129 24.9332 274.317 24.9332C273.504 24.9332 272.963 24.3918 272.963 23.5797V21.6847C272.151 20.8726 272.016 19.6544 272.828 18.8423C273.64 18.0301 274.858 17.8948 275.67 18.7069C276.482 19.3837 276.618 20.7372 275.805 21.5494Z" fill="white"></path><path d="M166.169 14.9195C165.499 14.9195 164.851 14.8179 164.225 14.6146C163.606 14.4028 163.119 14.1318 162.764 13.8014L163.234 12.8104C163.572 13.1154 164.004 13.3652 164.53 13.56C165.063 13.7464 165.61 13.8396 166.169 13.8396C166.905 13.8396 167.456 13.7167 167.82 13.4711C168.184 13.217 168.367 12.8824 168.367 12.4674C168.367 12.1625 168.265 11.9168 168.062 11.7305C167.867 11.5357 167.621 11.3874 167.325 11.2858C167.037 11.1841 166.626 11.0698 166.092 10.9427C165.423 10.7818 164.881 10.6209 164.466 10.4599C164.059 10.299 163.708 10.0534 163.412 9.72304C163.124 9.38423 162.98 8.93107 162.98 8.36357C162.98 7.88923 163.102 7.46149 163.348 7.08033C163.602 6.69917 163.983 6.39424 164.491 6.16554C165 5.93685 165.631 5.8225 166.385 5.8225C166.91 5.8225 167.426 5.89026 167.935 6.02579C168.443 6.16131 168.879 6.35612 169.243 6.61023L168.824 7.62666C168.451 7.38949 168.053 7.21162 167.63 7.09303C167.206 6.96598 166.791 6.90245 166.385 6.90245C165.665 6.90245 165.122 7.03374 164.758 7.29632C164.403 7.55889 164.225 7.8977 164.225 8.31274C164.225 8.61767 164.326 8.86754 164.53 9.06236C164.733 9.2487 164.983 9.39693 165.279 9.50705C165.584 9.60869 165.995 9.7188 166.512 9.83738C167.181 9.99832 167.719 10.1593 168.125 10.3202C168.532 10.4811 168.879 10.7268 169.167 11.0571C169.463 11.3874 169.612 11.8321 169.612 12.3912C169.612 12.857 169.485 13.2848 169.231 13.6744C168.976 14.0556 168.591 14.3605 168.074 14.5892C167.558 14.8094 166.922 14.9195 166.169 14.9195ZM173.742 8.02052C174.674 8.02052 175.385 8.24922 175.877 8.70661C176.376 9.164 176.626 9.84585 176.626 10.7522V14.8179H175.47V13.9285C175.267 14.2419 174.975 14.4833 174.593 14.6527C174.221 14.8136 173.776 14.8941 173.259 14.8941C172.505 14.8941 171.9 14.712 171.442 14.3478C170.994 13.9836 170.769 13.505 170.769 12.9121C170.769 12.3192 170.985 11.8448 171.417 11.4891C171.849 11.1249 172.535 10.9427 173.475 10.9427H175.407V10.7013C175.407 10.1762 175.254 9.77386 174.949 9.49434C174.644 9.21482 174.195 9.07506 173.602 9.07506C173.204 9.07506 172.815 9.14283 172.433 9.27835C172.052 9.4054 171.73 9.57904 171.468 9.79927L170.96 8.88448C171.307 8.60497 171.722 8.39321 172.205 8.24922C172.688 8.09675 173.2 8.02052 173.742 8.02052ZM173.463 13.9539C173.928 13.9539 174.331 13.8523 174.67 13.649C175.008 13.4372 175.254 13.1408 175.407 12.7596V11.8194H173.526C172.493 11.8194 171.976 12.1667 171.976 12.8613C171.976 13.2001 172.107 13.4669 172.37 13.6617C172.633 13.8565 172.997 13.9539 173.463 13.9539ZM182.67 14.424C182.492 14.5765 182.272 14.6951 182.009 14.7798C181.746 14.856 181.475 14.8941 181.196 14.8941C180.518 14.8941 179.993 14.712 179.62 14.3478C179.248 13.9836 179.061 13.4626 179.061 12.785V9.08777H177.918V8.08405H179.061V6.61023H180.281V8.08405H182.212V9.08777H180.281V12.7342C180.281 13.0984 180.37 13.3779 180.548 13.5727C180.734 13.7676 180.997 13.865 181.336 13.865C181.708 13.865 182.026 13.7591 182.288 13.5473L182.67 14.424ZM184.144 8.08405H185.364V14.8179H184.144V8.08405ZM184.754 6.78811C184.517 6.78811 184.318 6.71187 184.157 6.55941C184.004 6.40695 183.928 6.2206 183.928 6.00038C183.928 5.78015 184.004 5.5938 184.157 5.44134C184.318 5.28041 184.517 5.19994 184.754 5.19994C184.991 5.19994 185.186 5.27617 185.339 5.42864C185.499 5.57263 185.58 5.75474 185.58 5.97496C185.58 6.20366 185.499 6.39848 185.339 6.55941C185.186 6.71187 184.991 6.78811 184.754 6.78811ZM189.624 14.8941C189.073 14.8941 188.544 14.8221 188.036 14.6781C187.528 14.5256 187.13 14.3351 186.842 14.1064L187.35 13.1408C187.646 13.3525 188.006 13.5219 188.43 13.649C188.853 13.776 189.281 13.8396 189.713 13.8396C190.78 13.8396 191.314 13.5346 191.314 12.9248C191.314 12.7215 191.242 12.5606 191.098 12.442C190.954 12.3234 190.772 12.2387 190.551 12.1879C190.34 12.1286 190.035 12.0651 189.637 11.9973C189.095 11.9126 188.65 11.8152 188.303 11.7051C187.964 11.595 187.672 11.4086 187.426 11.146C187.18 10.8835 187.058 10.515 187.058 10.0407C187.058 9.43081 187.312 8.94378 187.82 8.57956C188.328 8.20687 189.01 8.02052 189.865 8.02052C190.314 8.02052 190.763 8.07558 191.212 8.18569C191.661 8.2958 192.03 8.44403 192.318 8.63038L191.797 9.59598C191.246 9.24023 190.598 9.06236 189.853 9.06236C189.336 9.06236 188.942 9.14706 188.671 9.31646C188.4 9.48587 188.265 9.71033 188.265 9.98985C188.265 10.2101 188.341 10.3837 188.493 10.5108C188.646 10.6378 188.832 10.731 189.052 10.7903C189.281 10.8496 189.599 10.9173 190.005 10.9936C190.547 11.0867 190.983 11.1884 191.314 11.2985C191.653 11.4001 191.941 11.578 192.178 11.8321C192.415 12.0862 192.534 12.442 192.534 12.8994C192.534 13.5092 192.271 13.9963 191.746 14.3605C191.229 14.7162 190.522 14.8941 189.624 14.8941ZM196.523 6.31801C195.794 6.31801 195.43 6.71187 195.43 7.4996V8.08405H197.387V9.08777H195.455V14.8179H194.236V9.08777H193.092V8.08405H194.236V7.4869C194.236 6.81775 194.431 6.28836 194.82 5.89873C195.21 5.5091 195.756 5.31429 196.459 5.31429C196.73 5.31429 196.984 5.34817 197.221 5.41593C197.459 5.48369 197.662 5.5811 197.831 5.70815L197.463 6.63564C197.183 6.42389 196.87 6.31801 196.523 6.31801ZM200.865 8.02052C201.797 8.02052 202.508 8.24922 203 8.70661C203.499 9.164 203.749 9.84585 203.749 10.7522V14.8179H202.593V13.9285C202.39 14.2419 202.097 14.4833 201.716 14.6527C201.344 14.8136 200.899 14.8941 200.382 14.8941C199.628 14.8941 199.023 14.712 198.565 14.3478C198.116 13.9836 197.892 13.505 197.892 12.9121C197.892 12.3192 198.108 11.8448 198.54 11.4891C198.972 11.1249 199.658 10.9427 200.598 10.9427H202.529V10.7013C202.529 10.1762 202.377 9.77386 202.072 9.49434C201.767 9.21482 201.318 9.07506 200.725 9.07506C200.327 9.07506 199.938 9.14283 199.556 9.27835C199.175 9.4054 198.853 9.57904 198.591 9.79927L198.083 8.88448C198.43 8.60497 198.845 8.39321 199.328 8.24922C199.81 8.09675 200.323 8.02052 200.865 8.02052ZM200.586 13.9539C201.051 13.9539 201.454 13.8523 201.793 13.649C202.131 13.4372 202.377 13.1408 202.529 12.7596V11.8194H200.649C199.616 11.8194 199.099 12.1667 199.099 12.8613C199.099 13.2001 199.23 13.4669 199.493 13.6617C199.755 13.8565 200.12 13.9539 200.586 13.9539ZM208.978 14.8941C208.292 14.8941 207.678 14.7459 207.136 14.4494C206.603 14.153 206.183 13.7464 205.878 13.2297C205.573 12.7046 205.421 12.1116 205.421 11.451C205.421 10.7903 205.573 10.2016 205.878 9.68492C206.183 9.15977 206.603 8.7532 207.136 8.46521C207.678 8.16875 208.292 8.02052 208.978 8.02052C209.588 8.02052 210.13 8.14334 210.605 8.38898C211.088 8.63461 211.46 8.99036 211.723 9.45622L210.795 10.0534C210.584 9.73151 210.321 9.4901 210.008 9.32917C209.694 9.16824 209.347 9.08777 208.966 9.08777C208.525 9.08777 208.127 9.18518 207.771 9.37999C207.424 9.57481 207.149 9.85432 206.946 10.2185C206.751 10.5743 206.653 10.9851 206.653 11.451C206.653 11.9253 206.751 12.3446 206.946 12.7088C207.149 13.0645 207.424 13.3398 207.771 13.5346C208.127 13.7294 208.525 13.8269 208.966 13.8269C209.347 13.8269 209.694 13.7464 210.008 13.5855C210.321 13.4245 210.584 13.1831 210.795 12.8613L211.723 13.4457C211.46 13.9116 211.088 14.2715 210.605 14.5256C210.13 14.7713 209.588 14.8941 208.978 14.8941ZM208.381 17.6639C207.941 17.6639 207.564 17.5707 207.251 17.3843L207.517 16.7618C207.771 16.9058 208.059 16.9778 208.381 16.9778C208.856 16.9778 209.093 16.8084 209.093 16.4696C209.093 16.3171 209.034 16.1943 208.915 16.1011C208.796 16.0164 208.614 15.9741 208.369 15.9741H208.026L208.343 14.7289H209.042L208.851 15.4531C209.207 15.487 209.478 15.5971 209.665 15.7835C209.859 15.9783 209.957 16.2197 209.957 16.5077C209.957 16.8634 209.813 17.1429 209.525 17.3462C209.237 17.558 208.856 17.6639 208.381 17.6639ZM215.754 8.02052C216.686 8.02052 217.397 8.24922 217.889 8.70661C218.388 9.164 218.638 9.84585 218.638 10.7522V14.8179H217.482V13.9285C217.279 14.2419 216.986 14.4833 216.605 14.6527C216.233 14.8136 215.788 14.8941 215.271 14.8941C214.517 14.8941 213.912 14.712 213.454 14.3478C213.005 13.9836 212.781 13.505 212.781 12.9121C212.781 12.3192 212.997 11.8448 213.429 11.4891C213.861 11.1249 214.547 10.9427 215.487 10.9427H217.418V10.7013C217.418 10.1762 217.266 9.77386 216.961 9.49434C216.656 9.21482 216.207 9.07506 215.614 9.07506C215.216 9.07506 214.827 9.14283 214.445 9.27835C214.064 9.4054 213.742 9.57904 213.48 9.79927L212.972 8.88448C213.319 8.60497 213.734 8.39321 214.217 8.24922C214.7 8.09675 215.212 8.02052 215.754 8.02052ZM215.475 13.9539C215.94 13.9539 216.343 13.8523 216.682 13.649C217.02 13.4372 217.266 13.1408 217.418 12.7596V11.8194H215.538C214.505 11.8194 213.988 12.1667 213.988 12.8613C213.988 13.2001 214.119 13.4669 214.382 13.6617C214.644 13.8565 215.009 13.9539 215.475 13.9539ZM216.732 7.06762C216.529 7.06762 216.351 7.02527 216.199 6.94057C216.055 6.85587 215.873 6.72881 215.652 6.55941C215.525 6.44083 215.415 6.35612 215.322 6.3053C215.229 6.24601 215.136 6.21637 215.043 6.21637C214.856 6.21637 214.704 6.28836 214.585 6.43236C214.467 6.56788 214.403 6.75846 214.395 7.0041H213.709C213.725 6.52976 213.844 6.15284 214.064 5.87332C214.293 5.5938 214.589 5.45405 214.954 5.45405C215.157 5.45405 215.335 5.50063 215.487 5.5938C215.648 5.67851 215.83 5.80556 216.034 5.97496C216.178 6.09355 216.292 6.18248 216.377 6.24178C216.461 6.2926 216.55 6.31801 216.643 6.31801C216.83 6.31801 216.982 6.25025 217.101 6.11472C217.219 5.9792 217.283 5.79285 217.291 5.55569H217.978C217.961 6.01308 217.838 6.38154 217.609 6.66105C217.389 6.9321 217.097 7.06762 216.732 7.06762ZM223.817 14.8941C223.148 14.8941 222.546 14.7459 222.013 14.4494C221.479 14.153 221.06 13.7464 220.755 13.2297C220.458 12.7046 220.31 12.1116 220.31 11.451C220.31 10.7903 220.458 10.2016 220.755 9.68492C221.06 9.15977 221.479 8.7532 222.013 8.46521C222.546 8.16875 223.148 8.02052 223.817 8.02052C224.486 8.02052 225.083 8.16875 225.608 8.46521C226.142 8.7532 226.557 9.15977 226.853 9.68492C227.158 10.2016 227.311 10.7903 227.311 11.451C227.311 12.1116 227.158 12.7046 226.853 13.2297C226.557 13.7464 226.142 14.153 225.608 14.4494C225.083 14.7459 224.486 14.8941 223.817 14.8941ZM223.817 13.8269C224.249 13.8269 224.634 13.7294 224.973 13.5346C225.32 13.3313 225.591 13.0518 225.786 12.6961C225.981 12.3319 226.078 11.9168 226.078 11.451C226.078 10.9851 225.981 10.5743 225.786 10.2185C225.591 9.85432 225.32 9.57481 224.973 9.37999C224.634 9.18518 224.249 9.08777 223.817 9.08777C223.385 9.08777 222.995 9.18518 222.648 9.37999C222.309 9.57481 222.038 9.85432 221.835 10.2185C221.64 10.5743 221.542 10.9851 221.542 11.451C221.542 11.9168 221.64 12.3319 221.835 12.6961C222.038 13.0518 222.309 13.3313 222.648 13.5346C222.995 13.7294 223.385 13.8269 223.817 13.8269ZM169.307 23.2312H171.187V26.8396C170.704 27.2038 170.145 27.4833 169.51 27.6781C168.875 27.8729 168.235 27.9703 167.592 27.9703C166.668 27.9703 165.838 27.7755 165.101 27.3859C164.364 26.9878 163.784 26.4415 163.361 25.7469C162.946 25.0439 162.738 24.2519 162.738 23.371C162.738 22.4901 162.946 21.7024 163.361 21.0078C163.784 20.3048 164.369 19.7585 165.114 19.3688C165.859 18.9707 166.698 18.7717 167.63 18.7717C168.409 18.7717 169.116 18.903 169.751 19.1655C170.387 19.4281 170.92 19.8093 171.352 20.309L170.031 21.5287C169.396 20.8596 168.629 20.525 167.731 20.525C167.164 20.525 166.66 20.6436 166.219 20.8808C165.779 21.1179 165.436 21.4525 165.19 21.8845C164.945 22.3165 164.822 22.812 164.822 23.371C164.822 23.9216 164.945 24.4128 165.19 24.8448C165.436 25.2768 165.775 25.6156 166.207 25.8613C166.647 26.0984 167.147 26.217 167.706 26.217C168.299 26.217 168.832 26.0899 169.307 25.8358V23.2312ZM175.716 20.8808C176.775 20.8808 177.588 21.1349 178.156 21.6431C178.723 22.1428 179.007 22.9009 179.007 23.9173V27.8179H177.152V26.9666C176.779 27.6019 176.085 27.9195 175.068 27.9195C174.543 27.9195 174.086 27.8306 173.696 27.6527C173.315 27.4748 173.023 27.2292 172.82 26.9158C172.616 26.6024 172.515 26.2466 172.515 25.8485C172.515 25.2133 172.752 24.7135 173.226 24.3493C173.709 23.9851 174.45 23.803 175.45 23.803H177.025C177.025 23.371 176.894 23.0407 176.631 22.812C176.369 22.5748 175.975 22.4562 175.45 22.4562C175.085 22.4562 174.725 22.5155 174.37 22.6341C174.022 22.7442 173.726 22.8967 173.48 23.0915L172.769 21.7066C173.141 21.444 173.586 21.2407 174.103 21.0968C174.628 20.9528 175.166 20.8808 175.716 20.8808ZM175.564 26.5855C175.903 26.5855 176.203 26.5092 176.466 26.3568C176.729 26.1958 176.915 25.9629 177.025 25.658V24.9592H175.666C174.852 24.9592 174.446 25.226 174.446 25.7596C174.446 26.0137 174.543 26.217 174.738 26.3695C174.941 26.5135 175.217 26.5855 175.564 26.5855ZM182.694 21.8845C182.931 21.5541 183.249 21.3043 183.647 21.1349C184.053 20.9655 184.519 20.8808 185.045 20.8808V22.7103C184.824 22.6934 184.676 22.6849 184.6 22.6849C184.032 22.6849 183.588 22.8459 183.266 23.1677C182.944 23.4811 182.783 23.9555 182.783 24.5907V27.8179H180.801V20.9824H182.694V21.8845ZM188.943 20.8808C190.002 20.8808 190.815 21.1349 191.382 21.6431C191.95 22.1428 192.234 22.9009 192.234 23.9173V27.8179H190.379V26.9666C190.006 27.6019 189.311 27.9195 188.295 27.9195C187.77 27.9195 187.312 27.8306 186.923 27.6527C186.542 27.4748 186.249 27.2292 186.046 26.9158C185.843 26.6024 185.741 26.2466 185.741 25.8485C185.741 25.2133 185.978 24.7135 186.453 24.3493C186.935 23.9851 187.677 23.803 188.676 23.803H190.252C190.252 23.371 190.12 23.0407 189.858 22.812C189.595 22.5748 189.201 22.4562 188.676 22.4562C188.312 22.4562 187.952 22.5155 187.596 22.6341C187.249 22.7442 186.952 22.8967 186.707 23.0915L185.995 21.7066C186.368 21.444 186.813 21.2407 187.329 21.0968C187.854 20.9528 188.392 20.8808 188.943 20.8808ZM188.79 26.5855C189.129 26.5855 189.43 26.5092 189.692 26.3568C189.955 26.1958 190.141 25.9629 190.252 25.658V24.9592H188.892C188.079 24.9592 187.672 25.226 187.672 25.7596C187.672 26.0137 187.77 26.217 187.965 26.3695C188.168 26.5135 188.443 26.5855 188.79 26.5855ZM198.182 20.8808C199.029 20.8808 199.711 21.1349 200.228 21.6431C200.753 22.1513 201.015 22.9051 201.015 23.9046V27.8179H199.033V24.2096C199.033 23.6675 198.915 23.2651 198.678 23.0026C198.44 22.7315 198.097 22.596 197.648 22.596C197.149 22.596 196.751 22.7527 196.454 23.0661C196.158 23.371 196.009 23.8284 196.009 24.4383V27.8179H194.027V20.9824H195.92V21.7828C196.183 21.4949 196.509 21.2746 196.899 21.1222C197.288 20.9612 197.716 20.8808 198.182 20.8808ZM207.221 27.4875C207.026 27.6315 206.784 27.7416 206.496 27.8179C206.217 27.8856 205.92 27.9195 205.607 27.9195C204.794 27.9195 204.163 27.712 203.714 27.297C203.274 26.8819 203.053 26.2721 203.053 25.4674V22.6595H201.999V21.1349H203.053V19.4705H205.035V21.1349H206.738V22.6595H205.035V25.442C205.035 25.73 205.107 25.9544 205.251 26.1154C205.404 26.2678 205.616 26.3441 205.887 26.3441C206.2 26.3441 206.467 26.2594 206.687 26.0899L207.221 27.4875ZM208.333 20.9824H210.315V27.8179H208.333V20.9824ZM209.324 20.0295C208.96 20.0295 208.664 19.9236 208.435 19.7119C208.206 19.5001 208.092 19.2375 208.092 18.9241C208.092 18.6107 208.206 18.3482 208.435 18.1364C208.664 17.9247 208.96 17.8188 209.324 17.8188C209.689 17.8188 209.985 17.9204 210.214 18.1237C210.442 18.327 210.557 18.5811 210.557 18.886C210.557 19.2164 210.442 19.4916 210.214 19.7119C209.985 19.9236 209.689 20.0295 209.324 20.0295ZM219.117 18.3905V27.8179H217.224V27.0301C216.733 27.6231 216.021 27.9195 215.09 27.9195C214.446 27.9195 213.862 27.7755 213.336 27.4875C212.82 27.1995 212.413 26.7887 212.117 26.2551C211.82 25.7215 211.672 25.1032 211.672 24.4001C211.672 23.6971 211.82 23.0788 212.117 22.5452C212.413 22.0115 212.82 21.6007 213.336 21.3127C213.862 21.0248 214.446 20.8808 215.09 20.8808C215.962 20.8808 216.644 21.156 217.135 21.7066V18.3905H219.117ZM215.433 26.2932C215.933 26.2932 216.348 26.1238 216.678 25.785C217.008 25.4377 217.173 24.9761 217.173 24.4001C217.173 23.8242 217.008 23.3668 216.678 23.028C216.348 22.6807 215.933 22.507 215.433 22.507C214.925 22.507 214.505 22.6807 214.175 23.028C213.845 23.3668 213.679 23.8242 213.679 24.4001C213.679 24.9761 213.845 25.4377 214.175 25.785C214.505 26.1238 214.925 26.2932 215.433 26.2932ZM223.709 20.8808C224.768 20.8808 225.581 21.1349 226.148 21.6431C226.716 22.1428 226.999 22.9009 226.999 23.9173V27.8179H225.144V26.9666C224.772 27.6019 224.077 27.9195 223.061 27.9195C222.536 27.9195 222.078 27.8306 221.689 27.6527C221.307 27.4748 221.015 27.2292 220.812 26.9158C220.609 26.6024 220.507 26.2466 220.507 25.8485C220.507 25.2133 220.744 24.7135 221.219 24.3493C221.701 23.9851 222.442 23.803 223.442 23.803H225.017C225.017 23.371 224.886 23.0407 224.624 22.812C224.361 22.5748 223.967 22.4562 223.442 22.4562C223.078 22.4562 222.718 22.5155 222.362 22.6341C222.015 22.7442 221.718 22.8967 221.473 23.0915L220.761 21.7066C221.134 21.444 221.579 21.2407 222.095 21.0968C222.62 20.9528 223.158 20.8808 223.709 20.8808ZM223.556 26.5855C223.895 26.5855 224.196 26.5092 224.458 26.3568C224.721 26.1958 224.907 25.9629 225.017 25.658V24.9592H223.658C222.845 24.9592 222.438 25.226 222.438 25.7596C222.438 26.0137 222.536 26.217 222.73 26.3695C222.934 26.5135 223.209 26.5855 223.556 26.5855Z" fill="white"></path><path d="M140.056 3.37246C140.388 2.32721 141.867 2.32721 142.199 3.37246L144.16 9.54423C144.308 10.0111 144.742 10.3282 145.232 10.3282H151.631C152.714 10.3282 153.171 11.7093 152.301 12.3553L146.819 16.428C146.575 16.6091 146.415 16.8812 146.375 17.1823L146.113 19.1486C146.046 19.6513 145.651 20.047 145.149 20.1147L141.415 20.6176C141.226 20.643 141.047 20.7159 140.894 20.8294L135.333 24.9611C134.456 25.6121 133.26 24.7583 133.59 23.7179L135.574 17.476C135.719 17.0185 135.558 16.5191 135.173 16.2328L129.953 12.3553C129.084 11.7093 129.54 10.3282 130.624 10.3282H137.023C137.512 10.3282 137.946 10.0111 138.094 9.54423L140.056 3.37246Z" fill="white"></path><path fill-rule="evenodd" clip-rule="evenodd" d="M148.436 29.8941C152.473 29.8941 155.746 26.5481 155.746 22.4206C155.746 18.2931 152.473 14.9471 148.436 14.9471C144.4 14.9471 141.127 18.2931 141.127 22.4206C141.127 26.5481 144.4 29.8941 148.436 29.8941ZM146.58 24.2458L151.912 18.3964L153.497 20.1339L148.149 25.9969L148.136 25.9832L146.665 27.5946L143.376 23.9869L144.859 22.3585L146.58 24.2458Z" fill="white"></path></svg> 