<?xml version="1.0" encoding="UTF-8"?> <svg xmlns="http://www.w3.org/2000/svg" width="80" height="48" viewBox="0 0 80 48" fill="none"><rect x="0.532091" y="0.492235" width="78.1143" height="46.2701" rx="4.43011" stroke="white" stroke-width="0.984469"></rect><path d="M38.3215 15.0975L34.4903 33.188H29.8561L33.6878 15.0975H38.3215ZM57.817 26.7787L60.2559 19.9854L61.6595 26.7787H57.817ZM62.9889 33.188H67.2738L63.5304 15.0975H59.5779C58.6871 15.0975 57.9362 15.6191 57.6038 16.4235L50.6508 33.188H55.5174L56.4835 30.4863H62.4277L62.9889 33.188ZM50.8921 27.2821C50.9123 22.5077 44.3572 22.2432 44.4011 20.1099C44.4153 19.4617 45.0276 18.7712 46.3659 18.5947C47.0294 18.5084 48.8605 18.4384 50.936 19.4044L51.7478 15.5666C50.6331 15.1593 49.1985 14.7671 47.4134 14.7671C42.8324 14.7671 39.6099 17.2247 39.5841 20.7467C39.5547 23.3511 41.8861 24.8033 43.6389 25.6708C45.4462 26.5574 46.0517 27.1258 46.0428 27.918C46.0303 29.1318 44.6018 29.6693 43.2715 29.6896C40.9405 29.7262 39.5893 29.0532 38.5125 28.5463L37.6713 32.5122C38.7558 33.0134 40.754 33.4496 42.8231 33.472C47.6934 33.472 50.8776 31.0433 50.8921 27.2821ZM31.7 15.0975L24.1918 33.188H19.2942L15.5991 18.7505C15.3751 17.8627 15.1797 17.5363 14.4985 17.1612C13.3842 16.5501 11.5447 15.9784 9.92719 15.6228L10.0368 15.0975H17.9216C18.926 15.0975 19.8296 15.7725 20.0596 16.9411L22.0115 27.4102L26.8318 15.0975H31.7Z" fill="white"></path></svg> 