<?xml version="1.0" encoding="UTF-8"?> <svg xmlns="http://www.w3.org/2000/svg" width="80" height="48" viewBox="0 0 80 48" fill="none"><rect x="0.552049" y="0.492235" width="78.1143" height="46.2701" rx="4.43011" stroke="white" stroke-width="0.984469"></rect><rect x="17.857" y="9.84473" width="3.37669" height="24.6556" fill="white"></rect><rect x="22.3592" y="9.84473" width="2.25113" height="14.5692" fill="white"></rect><rect x="25.7359" y="9.84473" width="1.12556" height="14.5692" fill="white"></rect><rect x="31.3638" y="9.84473" width="1.12556" height="14.5692" fill="white"></rect><rect x="33.6149" y="9.84473" width="1.12556" height="14.5692" fill="white"></rect><rect x="42.6194" y="9.84473" width="1.12556" height="14.5692" fill="white"></rect><rect x="40.3683" y="9.84473" width="1.12556" height="14.5692" fill="white"></rect><rect x="49.3727" y="9.84473" width="1.12556" height="14.5692" fill="white"></rect><rect x="59.5028" y="9.84473" width="1.12556" height="14.5692" fill="white"></rect><path d="M24.6576 32.9771V25.9859H28.0733C28.9522 25.9859 29.6113 26.1523 30.0508 26.4853C30.4969 26.8182 30.7199 27.2576 30.7199 27.8036C30.7199 28.1698 30.6301 28.4894 30.4503 28.7624C30.2705 29.0287 30.0242 29.2351 29.7112 29.3816C29.3983 29.5281 29.0387 29.6013 28.6326 29.6013L28.8223 29.1918C29.2618 29.1918 29.6513 29.2651 29.9909 29.4116C30.3304 29.5514 30.5934 29.7611 30.7799 30.0408C30.973 30.3204 31.0695 30.6633 31.0695 31.0695C31.0695 31.6687 30.8331 32.1381 30.3604 32.4777C29.8877 32.8106 29.1919 32.9771 28.273 32.9771H24.6576ZM26.2656 31.7586H28.1532C28.5727 31.7586 28.8889 31.692 29.102 31.5588C29.3217 31.419 29.4316 31.1993 29.4316 30.8997C29.4316 30.6067 29.3217 30.3903 29.102 30.2505C28.8889 30.104 28.5727 30.0308 28.1532 30.0308H26.1457V28.8523H27.8735C28.2664 28.8523 28.566 28.7857 28.7724 28.6525C28.9855 28.5127 29.092 28.303 29.092 28.0233C29.092 27.7503 28.9855 27.5473 28.7724 27.4141C28.566 27.2743 28.2664 27.2044 27.8735 27.2044H26.2656V31.7586ZM34.7413 33.0569C34.1687 33.0569 33.6594 32.9371 33.2133 32.6974C32.7738 32.4577 32.4243 32.1315 32.1646 31.7186C31.9116 31.2992 31.7851 30.8231 31.7851 30.2904C31.7851 29.7511 31.9116 29.2751 32.1646 28.8623C32.4243 28.4428 32.7738 28.1165 33.2133 27.8835C33.6594 27.6438 34.1687 27.5239 34.7413 27.5239C35.3073 27.5239 35.8133 27.6438 36.2594 27.8835C36.7055 28.1165 37.0551 28.4395 37.3081 28.8523C37.5611 29.2651 37.6876 29.7445 37.6876 30.2904C37.6876 30.8231 37.5611 31.2992 37.3081 31.7186C37.0551 32.1315 36.7055 32.4577 36.2594 32.6974C35.8133 32.9371 35.3073 33.0569 34.7413 33.0569ZM34.7413 31.7786C35.001 31.7786 35.2341 31.7186 35.4405 31.5988C35.6469 31.4789 35.81 31.3092 35.9298 31.0894C36.0497 30.8631 36.1096 30.5967 36.1096 30.2904C36.1096 29.9775 36.0497 29.7112 35.9298 29.4915C35.81 29.2717 35.6469 29.102 35.4405 28.9821C35.2341 28.8623 35.001 28.8023 34.7413 28.8023C34.4817 28.8023 34.2486 28.8623 34.0422 28.9821C33.8358 29.102 33.6694 29.2717 33.5429 29.4915C33.423 29.7112 33.3631 29.9775 33.3631 30.2904C33.3631 30.5967 33.423 30.8631 33.5429 31.0894C33.6694 31.3092 33.8358 31.4789 34.0422 31.5988C34.2486 31.7186 34.4817 31.7786 34.7413 31.7786ZM38.729 32.9771V25.5664H40.2871V32.9771H38.729ZM44.3997 33.0569C43.7871 33.0569 43.2478 32.9371 42.7817 32.6974C42.3223 32.4577 41.9661 32.1315 41.7131 31.7186C41.4601 31.2992 41.3336 30.8231 41.3336 30.2904C41.3336 29.7511 41.4567 29.2751 41.7031 28.8623C41.9561 28.4428 42.299 28.1165 42.7318 27.8835C43.1646 27.6438 43.6539 27.5239 44.1999 27.5239C44.7259 27.5239 45.1987 27.6371 45.6181 27.8635C46.0443 28.0832 46.3805 28.4028 46.6269 28.8223C46.8732 29.2351 46.9964 29.7312 46.9964 30.3104C46.9964 30.3703 46.9931 30.4403 46.9864 30.5202C46.9797 30.5934 46.9731 30.6633 46.9664 30.7299H42.6019V29.821H46.1475L45.5482 30.0907C45.5482 29.8111 45.4916 29.568 45.3784 29.3616C45.2652 29.1552 45.1088 28.9954 44.909 28.8822C44.7093 28.7624 44.4762 28.7025 44.2099 28.7025C43.9436 28.7025 43.7072 28.7624 43.5008 28.8822C43.3011 28.9954 43.1446 29.1585 43.0314 29.3716C42.9182 29.578 42.8616 29.8244 42.8616 30.1107V30.3504C42.8616 30.6433 42.9249 30.903 43.0514 31.1294C43.1845 31.3491 43.3676 31.5189 43.6007 31.6387C43.8404 31.7519 44.12 31.8085 44.4396 31.8085C44.7259 31.8085 44.9756 31.7652 45.1887 31.6787C45.4084 31.5921 45.6081 31.4623 45.7879 31.2892L46.6169 32.188C46.3705 32.4677 46.0609 32.6841 45.688 32.8372C45.3152 32.9837 44.8857 33.0569 44.3997 33.0569ZM50.2309 33.0569C49.5984 33.0569 49.1056 32.8972 48.7528 32.5776C48.3999 32.2513 48.2234 31.7686 48.2234 31.1294V26.4153H49.7815V31.1094C49.7815 31.3358 49.8414 31.5122 49.9612 31.6387C50.0811 31.7586 50.2442 31.8185 50.4506 31.8185C50.697 31.8185 50.9067 31.7519 51.0798 31.6188L51.4993 32.7174C51.3395 32.8306 51.1464 32.9171 50.92 32.9771C50.7003 33.0303 50.4706 33.0569 50.2309 33.0569ZM47.3945 28.9222V27.7237H51.1198V28.9222H47.3945ZM54.7648 33.0569C54.1922 33.0569 53.6829 32.9371 53.2368 32.6974C52.7973 32.4577 52.4478 32.1315 52.1881 31.7186C51.9351 31.2992 51.8086 30.8231 51.8086 30.2904C51.8086 29.7511 51.9351 29.2751 52.1881 28.8623C52.4478 28.4428 52.7973 28.1165 53.2368 27.8835C53.6829 27.6438 54.1922 27.5239 54.7648 27.5239C55.3308 27.5239 55.8368 27.6438 56.2829 27.8835C56.729 28.1165 57.0786 28.4395 57.3316 28.8523C57.5846 29.2651 57.7111 29.7445 57.7111 30.2904C57.7111 30.8231 57.5846 31.2992 57.3316 31.7186C57.0786 32.1315 56.729 32.4577 56.2829 32.6974C55.8368 32.9371 55.3308 33.0569 54.7648 33.0569ZM54.7648 31.7786C55.0245 31.7786 55.2576 31.7186 55.464 31.5988C55.6704 31.4789 55.8335 31.3092 55.9533 31.0894C56.0732 30.8631 56.1331 30.5967 56.1331 30.2904C56.1331 29.9775 56.0732 29.7112 55.9533 29.4915C55.8335 29.2717 55.6704 29.102 55.464 28.9821C55.2576 28.8623 55.0245 28.8023 54.7648 28.8023C54.5052 28.8023 54.2721 28.8623 54.0657 28.9821C53.8593 29.102 53.6929 29.2717 53.5664 29.4915C53.4465 29.7112 53.3866 29.9775 53.3866 30.2904C53.3866 30.5967 53.4465 30.8631 53.5664 31.0894C53.6929 31.3092 53.8593 31.4789 54.0657 31.5988C54.2721 31.7186 54.5052 31.7786 54.7648 31.7786Z" fill="white"></path><rect x="51.6239" y="9.84473" width="2.25113" height="14.5692" fill="white"></rect><rect x="55.0006" y="9.84473" width="3.37669" height="14.5692" fill="white"></rect><rect x="35.866" y="9.84473" width="3.37669" height="14.5692" fill="white"></rect><rect x="44.8705" y="9.84473" width="3.37669" height="14.5692" fill="white"></rect><rect x="27.9871" y="9.84473" width="2.25113" height="14.5692" fill="white"></rect></svg> 