<?xml version="1.0" encoding="UTF-8"?> <svg xmlns="http://www.w3.org/2000/svg" width="80" height="52" viewBox="0 0 80 52" fill="none"><rect x="0.532091" y="2.46098" width="78.1143" height="46.2701" rx="4.43011" stroke="white" stroke-width="0.984469"></rect><path d="M15.4851 33.3094C15.2571 32.9414 14.9469 32.353 14.7603 31.92C13.6578 29.3713 13.6051 26.7337 14.5363 24.2017C15.5599 21.4249 17.5157 19.2991 20.0425 18.2166C23.2193 16.8554 26.7328 17.1238 29.7775 18.9225C31.7116 20.0274 33.0827 21.7333 34.1239 24.145L34.2205 24.3795L34.4008 24.8455C34.4297 24.9206 34.4583 24.9937 34.4867 25.0637L15.4851 33.3094ZM21.8301 22.3082C19.5742 23.2736 18.4113 25.3806 18.6502 27.8511L28.2066 23.756C26.5633 21.833 24.4245 21.1956 21.8301 22.3082ZM33.0922 33.6774L29.3984 31.2184L29.393 31.2239L29.1952 31.091C28.6249 32.0124 27.7351 32.7587 26.6124 33.2434C24.4764 34.1684 22.4967 33.9305 21.0751 32.6891L20.9444 32.8871C20.9431 32.8848 20.9426 32.8831 20.9403 32.8831L18.5159 36.4945C19.1176 36.9109 19.7639 37.2637 20.4427 37.5455C23.121 38.6532 25.8611 38.602 28.5604 37.4329C30.5131 36.5904 32.0451 35.3056 33.0922 33.6774ZM41.1284 12.8979V32.976L44.2632 34.2411L42.4819 38.3798L39.0212 36.945C38.2445 36.6103 37.7158 36.0977 37.3155 35.5192C36.9329 34.9295 36.6467 34.1203 36.6467 33.0307V12.8979H41.1284ZM49.2501 27.8611C49.2519 26.1512 50.0101 24.6181 51.2099 23.576L47.9935 20.005C45.8119 21.9249 44.438 24.7303 44.4354 27.8561C44.4317 30.9829 45.8038 33.7914 47.9831 35.7162L51.1959 32.1417C50.0019 31.0955 49.2487 29.5669 49.2501 27.8611ZM54.965 33.5598C54.3316 33.558 53.7218 33.4539 53.1529 33.2654L51.6169 37.813C52.6667 38.1639 53.7912 38.3551 54.96 38.357C60.0529 38.3619 64.3055 34.7639 65.2908 29.9807L60.5694 29.0208C60.0325 31.6134 57.727 33.5616 54.965 33.5598ZM54.979 17.376C53.8116 17.3747 52.6875 17.5636 51.6391 17.9114L53.1617 22.463C53.7322 22.2754 54.3421 22.1718 54.9745 22.1718C57.7429 22.1745 60.0502 24.1343 60.5745 26.7342L65.2964 25.7805C64.3245 20.9905 60.0759 17.3791 54.979 17.376Z" fill="white"></path></svg> 