<?xml version="1.0" encoding="UTF-8"?> <svg xmlns="http://www.w3.org/2000/svg" width="80" height="48" viewBox="0 0 80 48" fill="none"><rect x="0.512193" y="0.492235" width="78.1143" height="46.2701" rx="4.43011" stroke="white" stroke-width="0.984469"></rect><path fill-rule="evenodd" clip-rule="evenodd" d="M39.0754 35.9058C36.6864 37.7893 33.8174 38.9606 30.7961 39.2858C27.7748 39.6111 24.7232 39.0772 21.9901 37.7451C19.257 36.413 16.9527 34.3364 15.3405 31.7528C13.7284 29.1692 12.8734 26.1828 12.8734 23.1349C12.8734 20.0869 13.7284 17.1005 15.3405 14.5169C16.9527 11.9333 19.257 9.85675 21.9901 8.52465C24.7232 7.19255 27.7748 6.65862 30.7961 6.98388C33.8173 7.30914 36.6864 8.48042 39.0754 10.3639C41.4643 8.48042 44.3333 7.30914 47.3545 6.98388C50.3757 6.65862 53.4273 7.19256 56.1603 8.52467C58.8933 9.85678 61.1976 11.9333 62.8096 14.5169C64.4217 17.1005 65.2765 20.0869 65.2764 23.1348C65.2765 26.1827 64.4217 29.1691 62.8096 31.7527C61.1976 34.3363 58.8933 36.4128 56.1603 37.7449C53.4273 39.077 50.3757 39.611 47.3545 39.2857C44.3333 38.9605 41.4643 37.7892 39.0754 35.9058ZM32.8902 23.1349C32.888 20.675 33.4437 18.2469 34.5154 16.0343C35.5869 13.8218 37.1463 11.8829 39.0754 10.3642C41.0027 11.8844 42.5609 13.8237 43.6323 16.0358C44.7037 18.248 45.2604 20.6753 45.2604 23.1348C45.2604 25.5942 44.7037 28.0216 43.6323 30.2338C42.5609 32.446 41.0027 34.3853 39.0753 35.9055C37.1463 34.3868 35.5869 32.4479 34.5154 30.2354C33.4437 28.0228 32.888 25.5947 32.8902 23.1349ZM41.7248 35.7333C43.496 36.774 45.4734 37.4312 47.5292 37.6525C50.245 37.9449 52.9879 37.4649 55.4446 36.2675C57.9012 35.0701 59.9725 33.2036 61.4215 30.8813C62.8705 28.5589 63.6389 25.8745 63.6388 23.1349C63.6389 20.3952 62.8705 17.7107 61.4215 15.3883C59.9725 13.066 57.9012 11.1995 55.4446 10.0021C52.9879 8.80467 50.245 8.32472 47.5292 8.61709C45.4734 8.83842 43.496 9.49556 41.7248 10.5363C43.1026 11.9294 44.2461 13.544 45.1053 15.318C46.285 17.7539 46.898 20.4267 46.898 23.1348C46.898 25.8429 46.285 28.5157 45.1053 30.9516C44.2461 32.7256 43.1026 34.3402 41.7248 35.7333Z" fill="white"></path><path d="M63.7319 32.6769V33.1998H63.6171V32.6769H63.4068V32.5704H63.9421V32.6769H63.7319Z" fill="white"></path><path d="M64.7713 32.5693V33.1998H64.6555V32.7232L64.4785 33.1343H64.3583L64.1813 32.7242V33.1998H64.0655V32.5693H64.2296L64.4184 33.003L64.6072 32.5693H64.7713Z" fill="white"></path></svg> 